<?xml version="1.0" standalone="no"?>
<svg width="239" height="210" viewBox="0 0 239 210" xmlns="http://www.w3.org/2000/svg" xmlns:xlink="http://www.w3.org/1999/xlink" version="1.1"><path d="M 106.5 8.562155092754544 C 99.9 8.353944428326129 92.7 8.576191521244276 90.5 9.05603752146154 C 88.3 9.535883521678805 84.925 10.213880776404379 83 10.56269808751837 C 81.075 10.91151539863236 75.9 12.303840974983297 71.5 13.656754923853784 C 67.1 15.009668872724271 60.6875 17.440363812122367 57.25 19.058299233627334 C 53.8125 20.6762346551323 50.8875 22.3375 50.75 22.75 C 50.6125 23.1625 48.34553902495449 24.625 45.71230894434331 26 C 43.079078863732136 27.375 40.94157886373213 28.8375 40.96230894434331 29.25 C 40.98303902495449 29.6625 40.325 30 39.5 30 C 38.675 30 37.79513289884026 30.7875 37.54473977520057 31.75 C 37.29434665156088 32.7125 36.16934665156088 33.8375 35.04473977520057 34.25 C 33.92013289884026 34.6625 32.6856726231316 35.7875 32.30149471807023 36.75 C 31.917316813008853 37.7125 30.560558437140273 39.625 29.286476105028942 41 C 28.012393772917612 42.375 25.002121253884923 47.55 22.59698161828964 52.5 C 20.191841982694356 57.45 17.51094102171851 63.975 16.6394239272322 67 C 15.767906832745894 70.025 14.637137295041676 76.325 14.126602732333936 81 C 13.616068169626196 85.675 13.411161965558778 93.55 13.671255612184119 98.5 C 13.93134925880946 103.45 15.257694966209868 112 16.61869051751836 117.5 C 17.97968606882685 123 19.972251609738695 129.4125 21.0466139417669 131.75 C 22.120976273795105 134.0875 23 136.225 23 136.5 C 23 136.775 25.269281372776128 141.6125 28.042847495058062 147.25 C 30.816413617339997 152.8875 35.08876770519711 160.2 37.53696769029609 163.5 C 39.98516767539507 166.8 44.80338630261894 172.33290111886038 48.244120195238025 175.79533581968974 C 51.68485408785711 179.2577705205191 57.2 183.83067555678852 60.5 185.95734701139958 C 63.8 188.08401846601066 69.875 190.95794034048734 74 192.34384006579225 C 78.125 193.72973979109716 82.7375 195.11933475482772 84.25 195.43182887408238 C 85.7625 195.74432299333708 86.99513671761396 196.3375 86.98919270580882 196.75 C 86.98324869400366 197.1625 85.52074869400366 197.34425630561321 83.73919270580882 197.1539029013627 C 81.7478903460444 196.94113878640647 80.21696370691431 197.32638611788093 79.76531277451706 198.1539029013627 C 79.2270756280656 199.14006331913893 79.02653102328257 199.1657589920283 79.01531277451706 198.25 C 79.00689074853267 197.5625 78.325 197 77.5 197 C 76.675 197 76 197.45 76 198 C 76 198.55 77.0125 199.37117235467213 78.25 199.82482745482693 C 79.4875 200.27848255498174 83.65 200.26277903301846 87.5 199.78993073935294 C 91.35 199.31708244568745 96.75 198.0982766139774 99.5 197.0814733355528 C 102.25 196.0646700571282 107.875 193.44518593537848 112 191.26039750944227 C 116.125 189.07560908350607 122.2 185.73598944213504 125.5 183.83902052861777 C 128.8 181.94205161510047 137.575 176.36918020623776 145 171.45486184225615 C 152.425 166.54054347827457 159.85 161.37052249132097 161.5 159.96592631569263 C 163.15 158.56133014006426 165.85 156.57355301850612 167.5 155.5486438233412 C 169.15 154.5237346281763 170.8375 153.08100873353888 171.25 152.34258627970252 C 171.6625 151.60416382586612 173.4625 150.25285058106388 175.25 149.33966795791972 C 177.0375 148.42648533477555 180.75 145.640933593668 183.5 143.14955297768066 C 186.25 140.65817236169332 193.16513142070377 133.86782178062947 198.86695871267506 128.05988501976094 C 204.5687860046463 122.25194825889243 210.47154808179727 115.7 211.9842077730105 113.5 C 213.49686746422375 111.3 215.9099107979299 107.25 217.34652629235754 104.5 C 218.78314178678517 101.75 220.46175201249252 97.25 221.0767712383739 94.5 C 221.6917904642553 91.75 222.35339383769656 87.7 222.5470009571323 85.5 C 222.74060807656804 83.3 222.1834137812736 79.25 221.30879141203351 76.5 C 220.43416904279343 73.75 218.77924098522922 70.15 217.63117350633524 68.5 C 216.48310602744127 66.85 214.6339280198774 64.74468328178027 213.5218890450822 63.82151840395614 C 212.40985007028698 62.89835352613202 208.35 61.12747159769112 204.5 59.88622522964303 C 200.65 58.64497886159495 194.8 57.43355545992514 191.5 57.194173225932346 C 188.001371838353 56.94038249100957 181.95638989566658 57.47657000205321 177 58.48031749962023 C 172.325 59.427079084141354 164.9 61.884594413825475 160.5 63.94146267669605 C 156.1 65.99833093956661 150.3625 69.32794794484796 147.75 71.34061157732127 C 145.1375 73.35327520979457 142.81037261838077 74.8875 142.57860581862394 74.75 C 142.3468390188671 74.6125 142.84281585776745 71.575 143.68077657173586 68 C 144.7811099084586 63.305637110175724 145.07403824818536 58.16651610429097 144.73527096459782 49.5 C 144.47728216670347 42.9 143.54939204222515 35.025 142.67329291020155 32 C 141.79719377817793 28.975 139.59979868300928 24.26149009114806 137.79019269871566 21.52553353588458 C 135.98058671442203 18.7895769806211 132.475 15.215648033239018 130 13.583469208368843 C 127.525 11.951290383498668 123.925 10.238962278213823 122 9.778295641069187 C 120.075 9.317629003924552 113.1 8.770365757182962 106.5 8.562155092754544 Z M 106.5 11.582387051046908 C 112.55 11.774801411565301 119.525 12.257925497872032 122 12.655996131728532 C 124.67054593649415 13.085517713014644 128.12618138978297 14.645628490806946 130.5 16.49347893061976 C 132.7 18.206023836153435 135.5313668427624 21.158077629027765 136.79192631724976 23.053598470340493 C 138.0524857917371 24.94911931165322 139.57440535125465 28.075 140.17396978284432 30 C 140.77353421443397 31.925 141.47981543339205 39.125 141.74348360275116 46 C 142.04942343321417 53.977209913299276 141.75620893518672 61.032762448552404 140.93310302901625 65.5 C 140.22372554410293 69.35 138.13378494201856 76.1 136.28879057993987 80.5 C 134.4437962178612 84.9 131.93654791652435 90.3711318978522 130.7171276880802 92.65807088411597 C 128.89613826920188 96.07321161941465 128.7015063929938 97.23457853736683 129.62780167422812 99.15807088411597 L 130.75560334845622 101.5 L 134.386505314581 94 C 136.48542508734295 89.66446617325893 140.22886128525624 84.17628176385412 143.2587036403529 80.99262977801213 C 146.1414166381588 77.9635761559188 150.075 74.34960913849557 152 72.96159196151606 C 153.925 71.57357478453656 158.425 69.03823562124083 162 67.32750493197001 C 165.575 65.6167742426992 170.525 63.642440740849366 173 62.94009715008151 C 175.475 62.23775355931366 178.175 61.478555551659454 179 61.25299046640549 C 179.825 61.02742538115154 184.325 60.794564542242384 189 60.735521935496266 C 194.25090162175533 60.669206016883244 199.79348120817272 61.27286680376929 203.5 62.31476518737449 C 206.8 63.24239158265364 210.93759050815476 65.01355294083585 212.69464557367724 66.25067931666828 C 214.4517006391997 67.48780569250073 216.5892006391997 69.9625 217.44464557367724 71.75 C 218.30009050815474 73.5375 219.26968273248352 76.9125 219.5992949610745 79.25 C 219.92890718966547 81.5875 219.7442617136568 85.975 219.18897168105528 89 C 218.63368164845375 92.025 217.05775011510272 96.975 215.68690160694192 100 C 214.3160530987811 103.025 210.6233041446545 108.875 207.48079281999392 113 C 204.33828149533335 117.125 197.85840386387736 124.325 193.08106475009174 129 C 188.30372563630613 133.675 181.71862006644136 139.66557393610114 178.44749681705895 142.3123865246692 C 175.17637356767654 144.95919911323728 168.43189797893572 150.13419911323726 163.45977328652384 153.8123865246692 C 158.48764859411196 157.49057393610116 153.71326900041853 160.95 152.850040856094 161.5 C 151.9868127117695 162.05 149.97991473283378 163.36484062028117 148.39026756957017 164.4218680450693 C 146.80062040630656 165.47889546985738 141.675 168.897627370656 137 172.01905004684403 C 132.325 175.14047272303202 124.45 180.06990655406426 119.5 182.9733474491379 C 114.55 185.87678834421152 108.025 189.36951823327297 105 190.73496942483004 C 101.975 192.1004206163871 97.25 193.83830517114976 94.5 194.59693510208035 C 91.75 195.35556503301098 89.1625 195.9816032431509 88.75 195.98813112461346 C 88.3375 195.99465900607606 88.00985188555349 195.4375 88.02189307900775 194.75 C 88.03448551514823 194.03102642985786 85.59176393780204 192.97503078832747 82.27189307900775 192.26425827850736 C 79.09735188555348 191.5846003316864 73.575 189.84491143250074 70 188.39828294698367 C 66.425 186.9516544614666 61.7 184.52674288142026 59.5 183.00959054688067 C 57.3 181.49243821234109 53.25 178.24269041421263 50.5 175.78792877326185 C 47.75 173.33316713231108 43.17205243566914 168.2141624870291 40.326783190375856 164.4123628948575 C 37.481513945082575 160.61056330268588 32.907388361453506 153 30.16205967120014 147.5 C 27.416730980946774 142 24.276529774542453 135.25 23.18383476807942 132.5 C 22.09113976161639 129.75 20.217720731804818 123.675 19.020681368498146 119 C 17.823642005191473 114.325 16.478161961233532 106.225 16.03072571525827 101 C 15.56999021530429 95.61969608203657 15.623148231742444 87.38030391796343 16.153307853869045 82 C 16.66816427608023 76.775 18.244854033175784 69.125 19.657062869636945 65 C 21.069271706098107 60.875 23.246430896127023 55.475 24.49519440303454 53 C 25.743957909942054 50.525 28.704778546456094 46.025 31.07479581751018 43 C 33.44481308856427 39.975 36.760036549601146 36.252965642418836 38.4419590642588 34.72881253870853 C 40.12388157891646 33.20465943499822 44.425 30.009461129721252 48 27.628371860315262 C 51.575 25.247282590909272 55.85 22.604648673519335 57.5 21.75585204389318 C 59.15 20.907055414267028 63.875 19.07839862901372 68 17.692170298885827 C 72.125 16.30594196875794 79.1 14.476529909207628 83.5 13.626810166551802 C 87.9 12.777090423895979 92.4 11.890767635245197 93.5 11.657203969550066 C 94.6 11.423640303854935 100.45 11.389972690528513 106.5 11.582387051046908 Z M 83.17864821861947 96.75178571428572 C 82.80539169837876 96.34026785714286 82.15698529411765 97.46526785714286 81.73774509803921 99.25178571428572 C 81.31850490196078 101.03830357142857 80.9699482749084 104.75 80.9631748157006 107.5 C 80.9564013564928 110.25 81.65645953611646 114.3 82.51885965930873 116.5 C 83.38125978250099 118.7 84.29231640955337 120.1625 84.54342994164733 119.75 C 84.7945434737413 119.3375 84.60225822190195 118.2125 84.11612938200435 117.25 C 83.63000054210673 116.2875 82.94099387463783 113.7 82.58500345429566 111.5 C 82.22901303395349 109.3 82.36964651043031 105.25 82.89752229091079 102.5 C 83.42539807139127 99.75 83.55190473886019 97.16330357142857 83.17864821861947 96.75178571428572 Z M 123.5 106.9591573161571 C 122.83087331107168 106.28427898429237 121.26121181047326 108.35757200406894 118.75600449454703 113.22528078517078 C 116.69680696654791 117.22637635332686 115.02760571686036 121.85 115.04666838413027 123.5 C 115.07527417155846 125.97602020159097 115.90386010775867 124.88157949755767 119.79066388958324 117.23387653098632 C 122.93736339700826 111.04240803690502 124.16818324996271 107.63308409949468 123.5 106.9591573161571 Z M 77.72698434354771 128.25 C 76.77714295459647 128.1125 76 128.225 76 128.5 C 76 128.775 77.35524657380843 131.8125 79.01165905290763 135.25 C 80.66807153200683 138.6875 83.70557153200683 143.2413422156896 85.76165905290763 145.36964936819908 C 87.81774657380844 147.49795652070856 91.1875 150.08545652070856 93.25 151.11964936819908 C 95.3125 152.1538422156896 99.025 153 101.5 153 C 104.52559962467798 153 108.04777829905836 151.98249997066526 112.25 149.8945001584076 C 115.6875 148.18647524553177 120.4116953621865 145.59897524553176 122.74821191597002 144.1445001584076 C 125.11725563554222 142.66977700061693 126.99721477898036 140.72589917623137 126.99821191597002 139.75 C 126.99923374609752 138.7499336199275 126.46433312862321 138.2139911053753 125.75 138.499356775661 C 125.0625 138.77400300227453 123.7125 139.22400300227451 122.75 139.499356775661 C 121.7875 139.77471054904746 121 140.45 121 141 C 121 141.55 119.875 142.225 118.5 142.5 C 117.125 142.775 116 143.45 116 144 C 116 144.55 115.55 145 115 145 C 114.45 145 111.75 146.125 109 147.5 C 106.25 148.875 102.425 150 100.5 150 C 98.575 150 95.2 149.1 93 148 C 90.8 146.9 87.85434951424574 144.7625 86.4541100316572 143.25 C 85.05387054906865 141.7375 83.03210024136513 139.15 81.96128712564938 137.5 C 80.89047400993363 135.85 79.88826745028436 133.15 79.7341614375399 131.5 C 79.55271228080002 129.557239277761 78.84535679373644 128.41189672685326 77.72698434354771 128.25 Z " fill="#000000"></path></svg>
