<?xml version="1.0" encoding="UTF-8" standalone="no"?>
<!-- Created with Inkscape (http://www.inkscape.org/) -->

<svg
   xmlns:dc="http://purl.org/dc/elements/1.1/"
   xmlns:cc="http://creativecommons.org/ns#"
   xmlns:rdf="http://www.w3.org/1999/02/22-rdf-syntax-ns#"
   xmlns:svg="http://www.w3.org/2000/svg"
   xmlns="http://www.w3.org/2000/svg"
   xmlns:sodipodi="http://sodipodi.sourceforge.net/DTD/sodipodi-0.dtd"
   xmlns:inkscape="http://www.inkscape.org/namespaces/inkscape"
   width="500"
   height="250"
   viewBox="0 0 132.29166 66.145834"
   version="1.1"
   id="svg8"
   inkscape:version="0.92.1 r15371"
   sodipodi:docname="A06.svg">
  <defs
     id="defs2">
    <marker
       inkscape:isstock="true"
       style="overflow:visible"
       id="marker4983"
       refX="0"
       refY="0"
       orient="auto"
       inkscape:stockid="Arrow2Mend">
      <path
         transform="scale(-0.6)"
         d="M 8.7185878,4.0337352 -2.2072895,0.01601326 8.7185884,-4.0017078 c -1.7454984,2.3720609 -1.7354408,5.6174519 -6e-7,8.035443 z"
         style="fill:#000000;fill-opacity:1;fill-rule:evenodd;stroke:#000000;stroke-width:0.625;stroke-linejoin:round;stroke-opacity:1"
         id="path4981"
         inkscape:connector-curvature="0" />
    </marker>
    <marker
       inkscape:stockid="Arrow1Mend"
       orient="auto"
       refY="0"
       refX="0"
       id="Arrow1Mend"
       style="overflow:visible"
       inkscape:isstock="true">
      <path
         id="path4625"
         d="M 0,0 5,-5 -12.5,0 5,5 Z"
         style="fill:#000000;fill-opacity:1;fill-rule:evenodd;stroke:#000000;stroke-width:1.00000003pt;stroke-opacity:1"
         transform="matrix(-0.4,0,0,-0.4,-4,0)"
         inkscape:connector-curvature="0" />
    </marker>
  </defs>
  <sodipodi:namedview
     id="base"
     pagecolor="#ffffff"
     bordercolor="#666666"
     borderopacity="1.0"
     inkscape:pageopacity="0.0"
     inkscape:pageshadow="2"
     inkscape:zoom="0.98994949"
     inkscape:cx="223.28648"
     inkscape:cy="139.25737"
     inkscape:document-units="mm"
     inkscape:current-layer="layer1"
     showgrid="false"
     inkscape:object-paths="true"
     inkscape:snap-smooth-nodes="false"
     inkscape:snap-intersection-paths="true"
     inkscape:snap-object-midpoints="true"
     inkscape:snap-center="true"
     inkscape:object-nodes="false"
     inkscape:snap-global="false"
     units="px"
     inkscape:window-width="1196"
     inkscape:window-height="956"
     inkscape:window-x="-7"
     inkscape:window-y="0"
     inkscape:window-maximized="0" />
  <metadata
     id="metadata5">
    <rdf:RDF>
      <cc:Work
         rdf:about="">
        <dc:format>image/svg+xml</dc:format>
        <dc:type
           rdf:resource="http://purl.org/dc/dcmitype/StillImage" />
        <dc:title></dc:title>
      </cc:Work>
    </rdf:RDF>
  </metadata>
  <g
     inkscape:label="レイヤー 1"
     inkscape:groupmode="layer"
     id="layer1"
     transform="translate(0,-230.85415)">
    <path
       style="color:#000000;font-style:normal;font-variant:normal;font-weight:normal;font-stretch:normal;font-size:medium;line-height:normal;font-family:sans-serif;font-variant-ligatures:normal;font-variant-position:normal;font-variant-caps:normal;font-variant-numeric:normal;font-variant-alternates:normal;font-feature-settings:normal;text-indent:0;text-align:start;text-decoration:none;text-decoration-line:none;text-decoration-style:solid;text-decoration-color:#000000;letter-spacing:normal;word-spacing:normal;text-transform:none;writing-mode:lr-tb;direction:ltr;text-orientation:mixed;dominant-baseline:auto;baseline-shift:baseline;text-anchor:start;white-space:normal;shape-padding:0;clip-rule:nonzero;display:inline;overflow:visible;visibility:visible;opacity:1;isolation:auto;mix-blend-mode:normal;color-interpolation:sRGB;color-interpolation-filters:linearRGB;solid-color:#000000;solid-opacity:1;vector-effect:none;fill:#000000;fill-opacity:1;fill-rule:evenodd;stroke:none;stroke-width:0.79374999;stroke-linecap:butt;stroke-linejoin:miter;stroke-miterlimit:4;stroke-dasharray:none;stroke-dashoffset:0;stroke-opacity:1;color-rendering:auto;image-rendering:auto;shape-rendering:auto;text-rendering:auto;enable-background:accumulate"
       d="m 54.207879,240.26083 v 24.13189 h 0.35567 v -24.13189 z m 0.209369,25.50568 v 0.35433 z"
       id="path4970"
       inkscape:connector-curvature="0" />
    <path
       style="color:#000000;font-style:normal;font-variant:normal;font-weight:normal;font-stretch:normal;font-size:medium;line-height:normal;font-family:sans-serif;font-variant-ligatures:normal;font-variant-position:normal;font-variant-caps:normal;font-variant-numeric:normal;font-variant-alternates:normal;font-feature-settings:normal;text-indent:0;text-align:start;text-decoration:none;text-decoration-line:none;text-decoration-style:solid;text-decoration-color:#000000;letter-spacing:normal;word-spacing:normal;text-transform:none;writing-mode:lr-tb;direction:ltr;text-orientation:mixed;dominant-baseline:auto;baseline-shift:baseline;text-anchor:start;white-space:normal;shape-padding:0;clip-rule:nonzero;display:inline;overflow:visible;visibility:visible;opacity:1;isolation:auto;mix-blend-mode:normal;color-interpolation:sRGB;color-interpolation-filters:linearRGB;solid-color:#000000;solid-opacity:1;vector-effect:none;fill:#000000;fill-opacity:1;fill-rule:evenodd;stroke:none;stroke-width:0.79374999;stroke-linecap:butt;stroke-linejoin:miter;stroke-miterlimit:4;stroke-dasharray:none;stroke-dashoffset:0;stroke-opacity:1;color-rendering:auto;image-rendering:auto;shape-rendering:auto;text-rendering:auto;enable-background:accumulate"
       d="m 54.362935,264.20031 c -3.496408,0.54293 -13.873251,2.39578 -23.446153,6.53205 -11.748887,5.07646 -22.7900055,16.35055 -22.7900055,16.35055 l 0.2549241,0.24638 c 0,0 11.0302874,-11.23988 22.6769974,-16.27221 9.522231,-4.11437 19.879059,-5.96635 23.359429,-6.50678 z"
       id="path4966"
       inkscape:connector-curvature="0" />
    <circle
       style="opacity:1;fill:#ffffff;fill-opacity:1;fill-rule:evenodd;stroke:#000000;stroke-width:1.64041662;stroke-linecap:round;stroke-linejoin:miter;stroke-miterlimit:4;stroke-dasharray:none;stroke-dashoffset:0;stroke-opacity:1;paint-order:fill markers stroke"
       id="path4548"
       cx="128.15465"
       cy="98.015678"
       r="0"
       transform="rotate(3.613552)" />
    <circle
       style="opacity:1;fill:#ffffff;fill-opacity:1;fill-rule:evenodd;stroke:#000000;stroke-width:1.64041662;stroke-linecap:round;stroke-linejoin:miter;stroke-miterlimit:4;stroke-dasharray:none;stroke-dashoffset:0;stroke-opacity:1;paint-order:fill markers stroke"
       id="path4552"
       cx="127.50367"
       cy="84.132477"
       r="0"
       transform="rotate(3.613552)" />
    <circle
       style="opacity:1;fill:#ffffff;fill-opacity:1;fill-rule:evenodd;stroke:#000000;stroke-width:1.64041662;stroke-linecap:round;stroke-linejoin:miter;stroke-miterlimit:4;stroke-dasharray:none;stroke-dashoffset:0;stroke-opacity:1;paint-order:fill markers stroke"
       id="path4554"
       cx="124.56371"
       cy="126.09378"
       r="0"
       transform="rotate(3.613552)" />
    <path
       style="color:#000000;font-style:normal;font-variant:normal;font-weight:normal;font-stretch:normal;font-size:medium;line-height:normal;font-family:sans-serif;font-variant-ligatures:normal;font-variant-position:normal;font-variant-caps:normal;font-variant-numeric:normal;font-variant-alternates:normal;font-feature-settings:normal;text-indent:0;text-align:start;text-decoration:none;text-decoration-line:none;text-decoration-style:solid;text-decoration-color:#000000;letter-spacing:normal;word-spacing:normal;text-transform:none;writing-mode:lr-tb;direction:ltr;text-orientation:mixed;dominant-baseline:auto;baseline-shift:baseline;text-anchor:start;white-space:normal;shape-padding:0;clip-rule:nonzero;display:inline;overflow:visible;visibility:visible;opacity:1;isolation:auto;mix-blend-mode:normal;color-interpolation:sRGB;color-interpolation-filters:linearRGB;solid-color:#000000;solid-opacity:1;vector-effect:none;fill:#000000;fill-opacity:1;fill-rule:evenodd;stroke:none;stroke-width:0.79374999;stroke-linecap:butt;stroke-linejoin:miter;stroke-miterlimit:4;stroke-dasharray:0.79375001, 1.58750004;stroke-dashoffset:0;stroke-opacity:1;color-rendering:auto;image-rendering:auto;shape-rendering:auto;text-rendering:auto;enable-background:accumulate"
       d="m 53.646339,240.75968 0.254926,0.24724 0.248794,-0.25334 -0.254926,-0.24725 z m -0.74638,0.75915 0.254926,0.24725 0.248795,-0.25335 -0.254926,-0.24637 z m -0.746379,0.76003 0.254926,0.24637 0.248795,-0.25247 -0.254927,-0.24725 z m -0.745505,0.75915 0.254053,0.24725 0.248789,-0.25335 -0.254926,-0.24724 z m -0.746378,0.75915 0.254047,0.24725 0.248793,-0.25334 -0.254051,-0.24725 z m -0.74638,0.75916 0.254921,0.24725 0.248795,-0.25247 -0.254926,-0.24726 z m -0.746384,0.76002 0.254926,0.24725 0.248795,-0.25334 -0.254925,-0.24725 z m -0.74638,0.75916 0.254927,0.24725 0.248795,-0.25335 -0.254926,-0.24725 z m -0.746379,0.75915 0.254926,0.24725 0.248791,-0.25334 -0.254921,-0.24724 z m -0.745504,0.75916 0.254046,0.24724 0.248796,-0.25246 -0.254048,-0.24725 z m -0.746379,0.76002 0.254926,0.24725 0.24879,-0.25334 -0.254926,-0.24725 z m -0.746384,0.75916 0.254926,0.24724 0.248794,-0.25334 -0.254924,-0.24724 z m -0.746379,0.75915 0.254927,0.24726 0.248793,-0.25335 -0.254926,-0.24637 z m -0.746381,0.76003 0.254926,0.24637 0.248794,-0.25246 -0.254926,-0.24726 z m -0.745504,0.75915 0.25405,0.24725 0.248793,-0.25334 -0.254925,-0.24726 z m -0.746379,0.75915 0.254926,0.24725 0.247916,-0.25333 -0.254049,-0.24725 z m -0.74638,0.75916 0.254925,0.24726 0.248793,-0.25248 -0.254926,-0.24725 z m -0.746381,0.76002 0.254925,0.24725 0.248795,-0.25333 -0.254927,-0.24725 z m -0.74638,0.75917 0.254924,0.24723 0.248795,-0.25333 -0.254927,-0.24725 z m -0.746382,0.75915 0.254926,0.24725 0.248794,-0.25335 -0.254926,-0.24724 z m -0.745503,0.75916 0.25405,0.24724 0.248793,-0.25247 -0.254051,-0.24725 z m -0.74638,0.76001 0.254926,0.24725 0.248792,-0.25334 -0.254925,-0.24724 z m -0.74638,0.75917 0.254925,0.24724 0.248792,-0.25334 -0.254924,-0.24725 z m -0.746381,0.75915 0.254925,0.24725 0.248795,-0.25335 -0.254927,-0.24637 z m -0.746381,0.76001 0.254925,0.24639 0.248794,-0.25247 -0.254926,-0.24725 z m -0.745503,0.75917 0.254048,0.24725 0.248794,-0.25335 -0.25405,-0.24725 z m -0.746381,0.75915 0.254926,0.24725 0.247917,-0.25334 -0.254051,-0.24725 z m -0.746381,0.75916 0.254927,0.24724 0.248792,-0.25247 -0.254924,-0.24725 z m -0.746379,0.76002 0.254925,0.24724 0.248793,-0.25332 -0.254925,-0.24726 z m -0.746381,0.75916 0.254924,0.24724 0.248795,-0.25334 -0.254926,-0.24725 z m -0.745506,0.75915 0.25405,0.24725 0.248794,-0.25335 -0.254926,-0.24724 z m -0.746378,0.75916 0.254049,0.24724 0.248793,-0.25247 -0.25405,-0.24725 z m -0.746382,0.76002 0.254927,0.24725 0.248793,-0.25335 -0.254927,-0.24724 z m -0.74638,0.75915 0.254927,0.24725 0.248793,-0.25334 -0.254925,-0.24724 z m -0.746381,0.75916 0.254927,0.24726 0.248793,-0.25335 -0.254925,-0.24639 z m -0.74638,0.76002 0.254925,0.24638 0.248795,-0.25246 -0.254926,-0.24726 z m -0.745503,0.75916 0.254049,0.24725 0.248793,-0.25334 -0.254049,-0.24725 z m -0.74638,0.75915 0.254924,0.24726 0.248794,-0.25335 -0.254926,-0.24724 z m -0.746382,0.75917 0.254927,0.24724 0.248792,-0.25247 -0.254925,-0.24725 z m -0.74638,0.76001 0.254926,0.24725 0.248794,-0.25334 -0.254926,-0.24724 z m -0.746381,0.75917 0.254927,0.24723 0.248793,-0.25333 -0.254926,-0.24725 z m -0.745503,0.75915 0.254049,0.24725 0.248794,-0.25336 -0.254051,-0.24723 z m -0.74638,0.75916 0.254925,0.24723 0.247917,-0.25246 -0.254049,-0.24726 z m -0.746381,0.76001 0.254925,0.24726 0.248793,-0.25336 -0.254925,-0.24723 z m -0.746381,0.75915 0.254927,0.24725 0.248793,-0.25333 -0.254926,-0.24725 z m -0.74638,0.75916 0.254926,0.24726 0.248794,-0.25335 -0.254926,-0.24638 z m -0.745504,0.76002 0.254049,0.24726 0.248794,-0.25334 -0.254926,-0.24725 z m -0.74638,0.75916 0.25405,0.24726 0.248793,-0.25335 -0.254051,-0.24725 z m -0.746381,0.75915 0.254926,0.24726 0.248793,-0.25335 -0.254925,-0.24724 z m -0.74638,0.75917 0.254925,0.24724 0.248793,-0.25247 -0.254924,-0.24725 z m -0.74638,0.76002 0.254925,0.24724 0.248794,-0.25334 -0.254926,-0.24724 z m -0.746382,0.75916 0.254926,0.24724 0.248795,-0.25334 -0.254927,-0.24725 z m -0.745502,0.75916 0.254048,0.24724 0.248794,-0.25334 -0.25405,-0.24727 z m -0.746381,0.75914 0.254925,0.24725 0.247918,-0.25247 -0.254051,-0.24725 z m -0.746381,0.76003 0.254926,0.24725 0.248793,-0.25335 -0.254924,-0.24725 z m -0.746379,0.75915 0.254925,0.24725 0.248793,-0.25334 -0.254925,-0.24726 z m -0.746383,0.75916 0.254926,0.24724 0.248795,-0.25333 -0.254927,-0.24639 z m -0.745504,0.76002 0.254049,0.24725 0.248794,-0.25335 -0.254925,-0.24724 z m -0.746379,0.75916 0.254049,0.24724 0.248793,-0.25333 -0.25405,-0.24726 z m -0.7463815,0.75915 0.254927,0.24725 0.2487915,-0.25334 -0.2549255,-0.24724 z m -0.7463799,0.75916 0.254926,0.24724 0.2487939,-0.25246 -0.2549259,-0.24726 z m -0.7463791,0.76002 0.2549241,0.24725 0.248794,-0.25335 -0.2549253,-0.24723 z"
       id="path4600"
       inkscape:connector-curvature="0" />
    <circle
       style="opacity:1;fill:#ffffff;fill-opacity:1;fill-rule:evenodd;stroke:#000000;stroke-width:1.64041662;stroke-linecap:round;stroke-linejoin:miter;stroke-miterlimit:4;stroke-dasharray:none;stroke-dashoffset:0;stroke-opacity:1;paint-order:fill markers stroke"
       id="path4584"
       cx="120.20104"
       cy="64.987473"
       r="0" />
    <circle
       cy="170.30788"
       cx="17.350912"
       id="circle4590"
       style="opacity:1;fill:#ffffff;fill-opacity:1;fill-rule:evenodd;stroke:#000000;stroke-width:1.64041662;stroke-linecap:round;stroke-linejoin:miter;stroke-miterlimit:4;stroke-dasharray:none;stroke-dashoffset:0;stroke-opacity:1;paint-order:fill markers stroke"
       r="0" />
    <ellipse
       cy="287.20621"
       cx="8.254384"
       id="circle5348"
       style="opacity:1;fill:#ffffff;fill-opacity:1;fill-rule:evenodd;stroke:#000000;stroke-width:0.69999999;stroke-linecap:round;stroke-linejoin:miter;stroke-miterlimit:4;stroke-dasharray:none;stroke-dashoffset:0;stroke-opacity:1;paint-order:fill markers stroke"
       rx="4.3156123"
       ry="4.2887983" />
    <g
       aria-label="A"
       style="font-style:normal;font-variant:normal;font-weight:normal;font-stretch:normal;font-size:5.1749177px;line-height:8.62486172px;font-family:'Noto Serif CJK JP';-inkscape-font-specification:'Noto Serif CJK JP';letter-spacing:0px;word-spacing:0px;fill:#000000;fill-opacity:1;stroke:none;stroke-width:0.59173238px;stroke-linecap:butt;stroke-linejoin:miter;stroke-opacity:1"
       id="text4594"
       transform="matrix(0.44852903,0,0,0.44574221,0.47199652,211.2928)">
      <path
         d="m 20.08661,173.4344 h -5.480381 l -1.230839,3.414 h -1.778878 l 4.995232,-13.08104 h 1.509351 l 5.004216,13.08104 h -1.769893 z m -4.959295,-1.41951 h 4.447194 l -2.22809,-6.11826 z"
         style="font-style:normal;font-variant:normal;font-weight:normal;font-stretch:normal;font-size:18.39970398px;font-family:Roboto;-inkscape-font-specification:Roboto;stroke-width:0.59173238px"
         id="path5567"
         inkscape:connector-curvature="0" />
    </g>
    <path
       style="fill:none;fill-rule:evenodd;stroke:#000000;stroke-width:0.26458332px;stroke-linecap:butt;stroke-linejoin:miter;stroke-opacity:1"
       d="m 49.808253,240.26047 v 0"
       id="path4596"
       inkscape:connector-curvature="0" />
    <g
       id="g5582"
       transform="matrix(0.44852903,0,0,0.44574221,0.47199652,211.2928)"
       style="stroke-width:2.23646879">
      <path
         style="color:#000000;font-style:normal;font-variant:normal;font-weight:normal;font-stretch:normal;font-size:medium;line-height:normal;font-family:sans-serif;font-variant-ligatures:normal;font-variant-position:normal;font-variant-caps:normal;font-variant-numeric:normal;font-variant-alternates:normal;font-feature-settings:normal;text-indent:0;text-align:start;text-decoration:none;text-decoration-line:none;text-decoration-style:solid;text-decoration-color:#000000;letter-spacing:normal;word-spacing:normal;text-transform:none;writing-mode:lr-tb;direction:ltr;text-orientation:mixed;dominant-baseline:auto;baseline-shift:baseline;text-anchor:start;white-space:normal;shape-padding:0;clip-rule:nonzero;display:inline;overflow:visible;visibility:visible;opacity:1;isolation:auto;mix-blend-mode:normal;color-interpolation:sRGB;color-interpolation-filters:linearRGB;solid-color:#000000;solid-opacity:1;vector-effect:none;fill:#000000;fill-opacity:1;fill-rule:evenodd;stroke:none;stroke-width:3.5503943;stroke-linecap:butt;stroke-linejoin:miter;stroke-miterlimit:4;stroke-dasharray:none;stroke-dashoffset:0;stroke-opacity:1;color-rendering:auto;image-rendering:auto;shape-rendering:auto;text-rendering:auto;enable-background:accumulate"
         d="m 39.363281,146.63086 -15.449219,15.82031 1.134766,1.10938 15.449219,-15.82032 z"
         id="path4602"
         inkscape:connector-curvature="0" />
      <path
         d="m 31.380003,150.4426 10.008884,-4.77187 -4.533023,10.1193 c -0.454879,-2.76806 -2.673188,-4.92094 -5.475861,-5.34743 z"
         style="fill:#000000;fill-opacity:1;fill-rule:evenodd;stroke:#000000;stroke-width:1.33139789;stroke-linejoin:round;stroke-opacity:1"
         id="path5586"
         inkscape:connector-curvature="0" />
    </g>
    <path
       style="fill:none;fill-rule:evenodd;stroke:#000000;stroke-width:0.26458332px;stroke-linecap:butt;stroke-linejoin:miter;stroke-opacity:1"
       d="M 18.38216,276.89963 Z"
       id="path4608"
       inkscape:connector-curvature="0" />
    <path
       inkscape:connector-curvature="0"
       id="path5612"
       style="font-style:normal;font-variant:normal;font-weight:bold;font-stretch:normal;font-size:medium;line-height:11.75819778px;font-family:'Noto Serif CJK JP';-inkscape-font-specification:'Noto Serif CJK JP Bold';letter-spacing:0px;word-spacing:0px;fill:#000000;fill-opacity:1;stroke:none;stroke-width:0.26458332px;stroke-linecap:butt;stroke-linejoin:miter;stroke-opacity:1"
       d="m 67.144712,261.59582 c -0.126626,0.27672 -0.207207,0.37183 -0.333833,0.37183 -0.132381,0 -0.264764,-0.36318 -0.224473,-0.66585 0.06331,-0.48424 0.546794,-0.9512 1.116612,-1.08956 -0.166916,0.44102 -0.420169,1.08092 -0.558306,1.38358 z m 2.705195,-2.50773 c 0.109359,0.0433 0.184183,0.0864 0.241741,0.15564 0.07482,0.0864 0.08058,0.15566 0.08634,0.31131 0,0.1643 -0.01151,0.40643 -0.04029,0.66585 -0.443192,-0.27672 -1.007254,-0.50155 -1.72672,-0.52749 0.24174,-0.60531 0.627375,-1.37493 0.840337,-1.69488 0.178428,-0.26807 0.420168,-0.38914 0.420168,-0.62261 0,-0.33725 -0.489237,-0.85609 -0.702199,-0.85609 -0.109359,0 -0.189939,0.1643 -0.414413,0.28537 -0.253253,0.1297 -0.7022,0.32859 -0.926674,0.32859 -0.172671,0 -0.247496,-0.19024 -0.356855,-0.44101 l -0.08058,0.026 c -0.01726,0.15565 -0.0403,0.34589 -0.02877,0.51019 0.01727,0.3113 0.328076,0.83015 0.581329,0.83015 0.132382,0 0.235985,-0.15566 0.322321,-0.25077 0.16116,-0.15566 0.414413,-0.37184 0.587085,-0.46697 0.09785,-0.0518 0.143893,0.0173 0.08634,0.19025 -0.08634,0.27672 -0.569818,1.45276 -0.86336,2.22236 -0.7022,0.17295 -1.490735,0.76962 -1.559804,1.68624 -0.05756,0.71773 0.184183,1.53058 0.518015,1.53058 0.316566,0 0.512261,-0.22482 0.74249,-0.76096 0.132382,-0.29402 0.420169,-1.3144 0.656154,-2.02348 0.869116,0.0606 1.375621,0.4929 1.738232,0.89932 -0.299298,1.12416 -0.892139,1.99754 -1.876369,2.52503 l 0.0518,0.15566 c 1.110857,-0.25943 1.91666,-0.93392 2.30805,-2.09266 0.293541,0.40642 0.454702,0.71772 0.656153,0.71772 0.212963,0 0.293542,-0.23348 0.299298,-0.44966 0.0058,-0.35454 -0.09209,-0.55343 -0.230229,-0.75232 -0.115115,-0.15565 -0.299298,-0.35454 -0.494994,-0.53613 0.04605,-0.28537 0.07482,-0.54478 0.09785,-0.70909 0.01727,-0.17295 0.04605,-0.37184 0.04605,-0.52749 0,-0.25077 -0.316565,-0.6226 -0.587085,-0.6399 -0.138138,-0.009 -0.282031,0.0864 -0.39139,0.19024 z" />
    <path
       inkscape:connector-curvature="0"
       id="path5614"
       style="font-style:normal;font-variant:normal;font-weight:bold;font-stretch:normal;font-size:medium;line-height:11.75819778px;font-family:'Noto Serif CJK JP';-inkscape-font-specification:'Noto Serif CJK JP Bold';letter-spacing:0px;word-spacing:0px;fill:#000000;fill-opacity:1;stroke:none;stroke-width:0.26458332px;stroke-linecap:butt;stroke-linejoin:miter;stroke-opacity:1"
       d="m 73.211256,256.45064 c 0.05756,0.0346 0.16116,0.0951 0.253252,0.19889 0.09785,0.1124 0.143893,0.21618 0.143893,0.39777 -0.0058,0.20754 -0.02878,0.44102 -0.06907,0.7091 -0.184183,0.0606 -0.374123,0.10381 -0.54104,0.10381 -0.368366,0 -0.55255,-0.20753 -0.794291,-0.48425 l -0.08633,0.0691 c 0.16116,0.95986 0.379878,1.17604 0.857604,1.17604 0.126626,0 0.259008,-0.009 0.402901,-0.0346 -0.253252,1.11551 -0.644642,1.98889 -1.024521,2.68069 -0.103603,0.19023 -0.138137,0.35454 -0.138137,0.56207 0,0.29401 0.109359,0.57937 0.305054,0.57937 0.16116,0 0.276275,-0.22482 0.420168,-0.56208 0.43168,-1.03768 0.777025,-2.50772 0.966964,-3.38975 0.39139,-0.1211 0.748245,-0.29402 0.949696,-0.48426 0.09785,-0.0951 0.178427,-0.20754 0.178427,-0.39778 0,-0.27671 -0.166915,-0.41507 -0.293542,-0.41507 -0.08634,0 -0.218718,0.1643 -0.627375,0.35454 0.161161,-0.73503 0.218718,-0.99445 0.103604,-1.13281 -0.120871,-0.1297 -0.316566,-0.22482 -0.54104,-0.22482 -0.155405,0 -0.356855,0.0864 -0.466214,0.17295 z m 1.876369,5.65537 c 0,0.4929 -0.230229,0.76962 -0.656153,0.76962 -0.402902,0 -0.558307,-0.20754 -0.558307,-0.4929 0,-0.27672 0.218718,-0.59667 0.684933,-0.59667 0.189938,0 0.368367,0.026 0.529527,0.0864 0,0.0778 0,0.15565 0,0.23347 z m 0.259008,-4.11614 c 0.247497,0.0346 0.454703,0.12971 0.581329,0.29401 0.05756,0.0691 0.08058,0.14701 0.0518,0.22484 -0.178427,0.13835 -0.471969,0.30265 -0.690687,0.70042 -0.172673,0.30267 -0.235986,0.68315 -0.235986,1.22793 0,0.23349 0.0058,0.50155 0.01726,0.77827 -0.05756,-0.009 -0.115116,-0.009 -0.172673,-0.009 -0.840337,0 -1.300796,0.6399 -1.300796,1.34034 0,0.63991 0.379879,1.12416 1.01301,1.12416 0.661909,0 1.053299,-0.40643 1.053299,-1.17605 0,-0.10381 0,-0.20752 -0.0058,-0.31129 0.212962,0.16429 0.385634,0.36318 0.529528,0.56208 0.224473,0.294 0.305053,0.53613 0.477725,0.53613 0.132382,0 0.264764,-0.147 0.264764,-0.48425 0,-0.38049 -0.253252,-0.74368 -0.615863,-1.02904 -0.18994,-0.16429 -0.425925,-0.3286 -0.725223,-0.44101 -0.05181,-0.46697 -0.109359,-0.89069 -0.132382,-1.14146 -0.03453,-0.33724 -0.04605,-0.63125 0.04029,-0.8215 0.08634,-0.18159 0.264763,-0.2767 0.43168,-0.28536 0.316566,-0.009 0.471971,0.25077 0.696443,0.25077 0.184184,0 0.247497,-0.19888 0.247497,-0.4756 0,-0.48425 -0.241741,-0.87338 -0.63313,-1.05498 -0.235986,-0.10382 -0.569818,-0.1211 -0.897895,0.0346 z" />
    <path
       inkscape:connector-curvature="0"
       id="path5616"
       style="font-style:normal;font-variant:normal;font-weight:bold;font-stretch:normal;font-size:medium;line-height:11.75819778px;font-family:'Noto Serif CJK JP';-inkscape-font-specification:'Noto Serif CJK JP Bold';letter-spacing:0px;word-spacing:0px;fill:#000000;fill-opacity:1;stroke:none;stroke-width:0.26458332px;stroke-linecap:butt;stroke-linejoin:miter;stroke-opacity:1"
       d="m 79.2778,256.84842 c 0.328076,0.0346 0.55255,0.10382 0.650398,0.3286 0.09209,0.21618 0.212962,0.54479 0.333832,0.85608 -0.345344,0.15566 -0.730978,0.26808 -0.989986,0.26808 -0.397146,0.009 -0.627375,-0.10382 -1.001498,-0.57073 l -0.08058,0.0951 c 0.259008,0.89067 0.448948,1.27116 1.185682,1.25387 0.362611,-0.009 0.817313,-0.15566 1.179929,-0.31995 0.253247,0.55342 0.558301,1.1328 0.771261,1.48733 0.05181,0.0864 0.0403,0.10382 -0.0288,0.0864 -0.224472,-0.0778 -0.63313,-0.20753 -1.13388,-0.20753 -0.932429,0 -1.617362,0.76097 -1.617362,1.73811 0,1.10686 0.78278,1.72082 1.870614,1.72082 0.851853,0 1.151146,-0.23347 1.151146,-0.57937 0,-0.36318 -0.230232,-0.50154 -0.483479,-0.50154 -0.224472,0 -0.466215,0.0951 -0.869118,0.0951 -0.805803,0 -1.197193,-0.40643 -1.197193,-0.95121 0,-0.64855 0.402902,-1.1328 1.001498,-1.1328 0.638884,0 1.076325,0.36318 1.369867,0.64855 0.189937,0.19024 0.305053,0.35454 0.477727,0.35454 0.21296,0 0.316565,-0.48425 0.316565,-0.78691 -0.0057,-0.19888 -0.05181,-0.3286 -0.189938,-0.52749 -0.299301,-0.43237 -0.696447,-0.9858 -0.989989,-1.68623 0.425921,-0.25077 0.828827,-0.57072 0.995741,-0.81285 0.109356,-0.15566 0.120868,-0.39779 0.03451,-0.54479 -0.09784,-0.15565 -0.28203,-0.1816 -0.42592,-0.15565 -0.126628,0.0433 -0.305054,0.40642 -0.863362,0.76962 -0.09209,-0.29402 -0.161163,-0.59667 -0.241744,-1.05498 -0.03454,-0.20754 -0.287786,-0.36319 -0.615863,-0.36319 -0.230229,0 -0.454703,0.17295 -0.633131,0.36319 z" />
    <path
       inkscape:connector-curvature="0"
       id="path5618"
       style="font-style:normal;font-variant:normal;font-weight:bold;font-stretch:normal;font-size:medium;line-height:11.75819778px;font-family:'Noto Serif CJK JP';-inkscape-font-specification:'Noto Serif CJK JP Bold';letter-spacing:0px;word-spacing:0px;fill:#000000;fill-opacity:1;stroke:none;stroke-width:0.26458332px;stroke-linecap:butt;stroke-linejoin:miter;stroke-opacity:1"
       d="m 85.712707,256.86571 c 0.06331,0.0864 0.08061,0.20754 0.0288,0.38049 -0.172674,0.50154 -1.041788,2.68068 -1.421671,3.66647 -0.316564,0.82151 -0.627369,1.45277 -0.627369,1.90243 0,0.3113 0.120867,0.6399 0.339588,0.6399 0.21296,0 0.316565,-0.23347 0.379874,-0.4929 0.09785,-0.40642 0.195697,-0.93391 0.339588,-1.43546 0.207209,-0.70908 0.610107,-1.4787 1.076322,-1.4787 0.310814,0 0.397147,0.29402 0.397147,0.65721 0,0.55342 -0.0691,1.02903 -0.06331,1.6257 0.0057,0.70907 0.305053,1.16738 0.857602,1.16738 0.800052,0 1.490739,-0.83878 1.617359,-2.87092 l -0.09208,-0.0346 c -0.235992,0.93391 -0.748246,1.9543 -1.35836,1.9543 -0.235984,0 -0.391386,-0.147 -0.391386,-0.57937 0,-0.47561 0.0288,-1.14146 -0.05181,-1.53058 -0.05181,-0.40643 -0.259015,-0.77826 -0.748245,-0.77826 -0.184186,0 -0.443193,0.0951 -0.719471,0.30265 -0.0403,0.0346 -0.05181,0.009 -0.03451,-0.0433 0.235984,-0.58802 0.736735,-1.56517 1.030276,-2.01484 0.161163,-0.25077 0.345348,-0.34589 0.345348,-0.54478 0,-0.3459 -0.305053,-0.89068 -0.759757,-0.9858 -0.126628,-0.0346 -0.339588,0 -0.477727,0.0778 l -0.0115,0.12971 c 0.103605,0.0606 0.259007,0.17295 0.34534,0.28536 z" />
    <path
       inkscape:connector-curvature="0"
       id="path5620"
       style="font-style:normal;font-variant:normal;font-weight:bold;font-stretch:normal;font-size:medium;line-height:11.75819778px;font-family:'Noto Serif CJK JP';-inkscape-font-specification:'Noto Serif CJK JP Bold';letter-spacing:0px;word-spacing:0px;fill:#000000;fill-opacity:1;stroke:none;stroke-width:0.26458332px;stroke-linecap:butt;stroke-linejoin:miter;stroke-opacity:1"
       d="m 91.11159,259.58099 h -0.235984 c 0.0057,-0.1989 0.0115,-0.38914 0.0115,-0.57073 v -1.34899 h 0.897897 c 0.08061,0 0.143891,-0.0433 0.155402,-0.13836 -0.253255,-0.33725 -0.644641,-0.76097 -0.644641,-0.76097 l -0.345348,0.64856 h -0.817315 c 0.115116,-0.31995 0.21872,-0.6572 0.305053,-1.02904 0.132387,0 0.201457,-0.0864 0.22448,-0.19024 l -0.909408,-0.36319 c -0.09785,1.21063 -0.3511,2.41261 -0.638889,3.22547 l 0.0691,0.0691 c 0.328076,-0.37183 0.615866,-0.86473 0.85185,-1.4614 h 0.189937 v 1.34899 c 0,0.19025 0,0.38049 -0.0057,0.57073 h -1.07057 l 0.04601,0.24212 h 1.013013 c -0.05181,1.34899 -0.28203,2.81039 -1.099345,4.03832 l 0.05752,0.0864 c 0.943935,-0.76961 1.375615,-1.85918 1.565561,-2.93145 0.224472,0.51019 0.448944,1.14145 0.518014,1.69489 0.610106,0.70907 1.139631,-1.06364 -0.471976,-1.98025 0.04601,-0.31131 0.07481,-0.61397 0.08634,-0.90798 h 1.041787 c 0.08061,0 0.143891,-0.0433 0.161163,-0.13836 -0.230232,-0.32859 -0.615867,-0.80419 -0.615867,-0.80419 z m 1.617359,2.89686 v -5.24894 h 0.880633 v 5.24894 z m 1.151151,-6.03586 -0.328076,0.53614 h -0.800052 l -0.684928,-0.44102 v 7.09948 H 92.1764 c 0.299302,0 0.552549,-0.25077 0.552549,-0.37183 v -0.54478 h 0.880633 v 0.77825 h 0.109356 c 0.241744,0 0.558308,-0.23347 0.56406,-0.30265 v -5.80238 c 0.115116,-0.0346 0.195697,-0.10382 0.235984,-0.18159 z" />
    <path
       inkscape:connector-curvature="0"
       id="path5622"
       style="font-style:normal;font-variant:normal;font-weight:bold;font-stretch:normal;font-size:medium;line-height:11.75819778px;font-family:'Noto Serif CJK JP';-inkscape-font-specification:'Noto Serif CJK JP Bold';letter-spacing:0px;word-spacing:0px;fill:#000000;fill-opacity:1;stroke:none;stroke-width:0.26458332px;stroke-linecap:butt;stroke-linejoin:miter;stroke-opacity:1"
       d="m 95.64135,260.02201 c -0.0057,0.15565 -0.02301,0.35453 0.0173,0.53613 0.07481,0.3113 0.368363,0.64855 0.575572,0.64855 0.149651,0 0.253255,-0.15566 0.50075,-0.45831 0.235984,-0.26807 0.823068,-1.19334 1.415911,-1.19334 0.471967,0 0.730974,0.56208 0.730974,1.17604 0,1.27982 -1.001493,1.96296 -2.135373,2.1532 l 0.0115,0.147 c 0.633129,0.0865 1.456196,0.0173 1.951195,-0.39778 0.437433,-0.35454 0.788533,-0.87337 0.788533,-1.77271 0,-0.89067 -0.52953,-1.72947 -1.329578,-1.72947 -0.736734,0 -1.392887,0.66585 -1.951187,1.0031 -0.109365,0.0691 -0.172674,0.0951 -0.230232,0.0951 -0.120868,0 -0.235984,-0.147 -0.28779,-0.24211 z" />
    <path
       inkscape:connector-curvature="0"
       id="path5624"
       style="font-style:normal;font-variant:normal;font-weight:bold;font-stretch:normal;font-size:medium;line-height:11.75819778px;font-family:'Noto Serif CJK JP';-inkscape-font-specification:'Noto Serif CJK JP Bold';letter-spacing:0px;word-spacing:0px;fill:#000000;fill-opacity:1;stroke:none;stroke-width:0.26458332px;stroke-linecap:butt;stroke-linejoin:miter;stroke-opacity:1"
       d="m 100.86181,257.5402 c -0.023,0.12972 -0.0518,0.32861 -0.046,0.53615 0.0173,0.42372 0.41441,0.98579 0.68493,0.98579 0.16116,0 0.28203,-0.19024 0.40291,-0.29401 0.34533,-0.3113 1.13963,-0.73503 1.8188,-0.9685 0.0575,-0.026 0.0633,0.026 0.0173,0.0778 -0.65615,0.66585 -1.03604,1.74676 -1.03604,2.98333 0,1.09822 0.25901,1.69489 0.65616,2.06672 0.36261,0.35454 0.78278,0.43238 1.22597,0.43238 0.26477,0 0.55255,-0.0951 0.55255,-0.4929 0,-0.32861 -0.2475,-0.60532 -0.44319,-0.60532 -0.16692,0 -0.4029,0.026 -0.71947,-0.1124 -0.38563,-0.12972 -0.73673,-0.5102 -0.73673,-1.59976 0,-1.47006 0.48348,-2.17914 0.69069,-2.39533 0.30505,-0.32859 0.65615,-0.36318 0.92092,-0.36318 0.16115,0 0.3511,0.0346 0.5065,0.0346 0.18418,0 0.30505,-0.17295 0.30505,-0.38913 0,-0.23348 -0.11511,-0.38914 -0.27052,-0.49291 -0.14965,-0.10369 -0.31656,-0.13834 -0.48924,-0.13834 -0.17842,0 -0.78278,0.21618 -1.39288,0.44101 -1.01302,0.36318 -1.85335,0.69178 -2.19869,0.69178 -0.14965,0 -0.27628,-0.21618 -0.37988,-0.43237 z" />
    <path
       inkscape:connector-curvature="0"
       id="path5626"
       style="font-style:normal;font-variant:normal;font-weight:bold;font-stretch:normal;font-size:medium;line-height:11.75819778px;font-family:'Noto Serif CJK JP';-inkscape-font-specification:'Noto Serif CJK JP Bold';letter-spacing:0px;word-spacing:0px;fill:#000000;fill-opacity:1;stroke:none;stroke-width:0.26458332px;stroke-linecap:butt;stroke-linejoin:miter;stroke-opacity:1"
       d="m 108.9889,261.88118 c 0,0.78691 -0.28203,0.98581 -0.84609,0.98581 -0.30506,0 -0.52378,-0.19025 -0.52378,-0.47562 0,-0.31129 0.32808,-0.59665 0.80005,-0.59665 0.20145,0 0.39139,0.026 0.56982,0.0778 z m -0.59284,-5.23165 c 0.18418,0.0606 0.30505,0.1124 0.42592,0.19025 0.0979,0.0691 0.13814,0.13835 0.13814,0.31129 0,0.12111 -0.006,0.37184 -0.006,0.6918 -0.27627,0.0518 -0.57557,0.0864 -0.86911,0.0864 -0.47773,0 -0.7022,-0.19024 -0.99574,-0.49289 l -0.0691,0.0778 c 0.27628,0.91662 0.67343,1.14145 1.23749,1.14145 0.23598,0 0.46621,-0.0173 0.68493,-0.0433 0,0.19025 0,0.37185 0,0.54479 0,0.12971 0,0.26807 0,0.40643 -0.21872,0.0346 -0.44319,0.0519 -0.67918,0.0519 -0.47197,0 -0.63313,-0.19024 -0.38564,-0.76098 l -0.0863,-0.0864 c -0.71371,0.8388 -0.25901,1.56517 0.52378,1.56517 0.21296,0 0.43168,-0.0173 0.64464,-0.0433 0.006,0.35454 0.0173,0.69179 0.023,0.99444 -0.0921,-0.009 -0.18418,-0.0173 -0.28203,-0.0173 -0.77127,0 -1.35835,0.44966 -1.35835,1.17603 0,0.76098 0.45471,1.1674 1.11661,1.1674 0.67918,0 1.08783,-0.45831 1.08783,-1.15875 0,-0.11239 0,-0.21618 -0.006,-0.3286 0.3511,0.22483 0.6504,0.55344 0.93243,0.94257 0.13814,0.17295 0.20145,0.26806 0.34534,0.26806 0.14389,0 0.25326,-0.147 0.25326,-0.43236 0,-0.29401 -0.12663,-0.52749 -0.31657,-0.73503 -0.18418,-0.20753 -0.61011,-0.59666 -1.2605,-0.78691 -0.0288,-0.3459 -0.0575,-0.71773 -0.0748,-1.15875 0.55256,-0.0951 1.01302,-0.25077 1.19144,-0.36319 0.13238,-0.0778 0.23599,-0.19888 0.23599,-0.43236 0,-0.28537 -0.22448,-0.38049 -0.46046,-0.38049 -0.0403,0 -0.12663,0.0864 -0.37412,0.19889 -0.18994,0.0864 -0.38564,0.15565 -0.5986,0.21619 0.006,-0.31996 0.0115,-0.63991 0.0288,-0.92527 0.58133,-0.1211 1.03604,-0.30266 1.24325,-0.41508 0.17266,-0.0864 0.27627,-0.17294 0.27627,-0.42372 0,-0.32859 -0.32808,-0.42372 -0.48924,-0.42372 -0.046,0 -0.13238,0.0864 -0.36837,0.20754 -0.13238,0.0605 -0.34534,0.147 -0.60435,0.22484 0.0115,-0.13836 0.0288,-0.25943 0.046,-0.3459 0.0403,-0.21618 0.12087,-0.31995 0.12087,-0.4929 0,-0.3286 -0.39139,-0.58802 -0.75975,-0.58802 -0.21297,0 -0.38563,0.1211 -0.51802,0.25077 z" />
    <path
       inkscape:connector-curvature="0"
       id="path5628"
       style="font-style:normal;font-variant:normal;font-weight:bold;font-stretch:normal;font-size:medium;line-height:11.75819778px;font-family:'Noto Serif CJK JP';-inkscape-font-specification:'Noto Serif CJK JP Bold';letter-spacing:0px;word-spacing:0px;fill:#000000;fill-opacity:1;stroke:none;stroke-width:0.26458332px;stroke-linecap:butt;stroke-linejoin:miter;stroke-opacity:1"
       d="m 114.68707,261.18939 c -0.26476,0 -0.44318,-0.33724 -0.44318,-0.72637 0,-0.45831 0.18993,-0.79557 0.46045,-0.79557 0.24175,0 0.3511,0.3459 0.3511,0.76962 0,0.50155 -0.0978,0.75232 -0.36837,0.75232 z m -0.32232,-4.53986 c 0.16117,0.0433 0.29931,0.0864 0.39139,0.147 0.0921,0.0606 0.12088,0.12111 0.13814,0.26807 0.0173,0.17295 0.0345,0.44967 0.0518,0.74368 -0.65041,0.1211 -1.73824,0.32859 -1.98573,0.3113 -0.20145,0 -0.28779,-0.147 -0.49499,-0.50154 l -0.0864,0.0518 c -0.006,0.19025 -0.006,0.43237 0.0345,0.62261 0.0633,0.3459 0.39715,0.80421 0.62162,0.80421 0.20145,0 0.32233,-0.18159 0.59285,-0.30266 0.27627,-0.1211 0.75975,-0.29401 1.34684,-0.40642 0.0115,0.31995 0.023,0.63126 0.0345,0.85608 -0.0748,-0.026 -0.15541,-0.0346 -0.24175,-0.0346 -0.47196,0 -0.82882,0.57938 -0.82882,1.34035 0,0.87338 0.42593,1.59111 1.0015,1.34898 -0.22447,0.81286 -0.81156,1.36629 -1.51376,1.74677 l 0.046,0.1643 c 1.26626,-0.26806 2.23897,-1.19334 2.23897,-2.98334 0,-0.45831 -0.0691,-0.88203 -0.24174,-1.18469 0,-0.43237 0,-0.91661 0.006,-1.34033 1.05905,-0.12972 1.42742,0.1124 1.68068,0.1124 0.17266,0 0.28778,-0.0433 0.28778,-0.33725 0,-0.39778 -0.38563,-0.64855 -0.69069,-0.64855 -0.0921,0 -0.20721,0.1124 -1.26626,0.29401 0,-0.16431 0.006,-0.29401 0.0115,-0.37183 0.0173,-0.20754 0.11511,-0.38914 0.11511,-0.62262 0,-0.28536 -0.41442,-0.51019 -0.74249,-0.51019 -0.18994,0 -0.37988,0.16429 -0.51802,0.31131 z" />
    <path
       inkscape:connector-curvature="0"
       id="path5630"
       style="font-style:normal;font-variant:normal;font-weight:bold;font-stretch:normal;font-size:medium;line-height:11.75819778px;font-family:'Noto Serif CJK JP';-inkscape-font-specification:'Noto Serif CJK JP Bold';letter-spacing:0px;word-spacing:0px;fill:#000000;fill-opacity:1;stroke:none;stroke-width:0.26458332px;stroke-linecap:butt;stroke-linejoin:miter;stroke-opacity:1"
       d="m 120.43705,257.65263 c 0.0806,-0.28536 0.2475,-0.41508 0.2475,-0.65721 0,-0.30265 -0.53529,-0.64854 -0.80005,-0.64854 -0.24174,0 -0.4029,0.1211 -0.52377,0.21618 v 0.12971 c 0.16116,0.0518 0.33384,0.11239 0.42592,0.20753 0.0691,0.0519 0.0921,0.147 0.0921,0.25943 0,0.17295 -0.0921,0.67449 -0.24173,1.2971 -0.44319,0.12971 -0.85185,0.27671 -1.04755,0.27671 -0.14965,0 -0.21872,-0.19023 -0.32231,-0.46695 l -0.0806,0.026 c -0.046,0.17294 -0.0921,0.36319 -0.0633,0.59666 0.0403,0.35454 0.30505,0.80421 0.47773,0.80421 0.1554,0 0.26476,-0.0951 0.4547,-0.22483 0.10361,-0.0691 0.24174,-0.15566 0.38564,-0.24213 -0.0921,0.33726 -0.18994,0.68314 -0.29931,1.02039 -0.28203,0.86474 -0.59283,1.59112 -0.87486,2.1186 -0.10937,0.19889 -0.13239,0.30266 -0.13239,0.56208 0,0.32861 0.14389,0.53615 0.28203,0.53615 0.15541,0 0.2475,-0.0864 0.37412,-0.41508 0.20721,-0.52749 0.56407,-1.64301 0.82883,-2.50774 0.14389,-0.46695 0.32233,-1.08957 0.47773,-1.66029 0.16116,-0.0691 0.31081,-0.1124 0.41441,-0.1124 0.27052,0 0.36837,0.23349 0.36837,0.70044 0,0.86474 -0.16116,2.09266 -0.43743,2.59421 -0.10937,0.21618 -0.20146,0.30266 -0.38564,0.30266 -0.15541,0 -0.37988,-0.147 -0.66767,-0.37184 l -0.0518,0.1124 c 0.27628,0.44967 0.31657,0.52749 0.34535,0.70044 0.069,0.43237 0.1554,0.56208 0.37988,0.56208 0.29354,0 0.56406,-0.19889 0.74824,-0.50154 0.42592,-0.70044 0.5986,-1.94566 0.5986,-3.05252 0,-1.15011 -0.2993,-1.56517 -0.75976,-1.56517 -0.10936,0 -0.25325,0.026 -0.39139,0.0518 z m 1.2087,0.70908 c 0.31082,0.1211 0.51803,0.38048 0.66767,0.73502 0.15541,0.37184 0.20146,0.77826 0.20146,1.02904 0.006,0.23348 -0.046,0.3286 -0.17844,0.41507 -0.12662,0.0778 -0.32231,0.14701 -0.56406,0.24213 l 0.0173,0.15565 c 0.20145,0.009 0.50074,0.0605 0.62737,0.12971 0.18994,0.1124 0.20146,0.38913 0.4029,0.38049 0.25325,0 0.37988,-0.37184 0.37988,-0.89068 0,-0.67449 -0.14389,-1.27982 -0.46622,-1.72947 -0.28778,-0.41508 -0.67917,-0.59667 -1.0533,-0.62262 z" />
    <path
       inkscape:connector-curvature="0"
       id="path5632"
       style="font-style:normal;font-variant:normal;font-weight:bold;font-stretch:normal;font-size:medium;line-height:11.75819778px;font-family:'Noto Serif CJK JP';-inkscape-font-specification:'Noto Serif CJK JP Bold';letter-spacing:0px;word-spacing:0px;fill:#000000;fill-opacity:1;stroke:none;stroke-width:0.26458332px;stroke-linecap:butt;stroke-linejoin:miter;stroke-opacity:1"
       d="m 124.49485,263.29935 c 0.27052,0 0.47772,-0.31995 0.47772,-0.71773 0,-0.39778 -0.2072,-0.71774 -0.47772,-0.71774 -0.26476,0 -0.47773,0.31996 -0.47773,0.71774 0,0.39778 0.21297,0.71773 0.47773,0.71773 z m 0,-6.67576 c -0.28779,0 -0.46046,0.24212 -0.46046,0.70909 0,0.40642 0.0748,1.1155 0.25326,2.39531 l 0.12086,1.29711 h 0.17843 l 0.11512,-1.29711 c 0.18418,-1.27981 0.259,-1.98889 0.259,-2.39531 0,-0.46697 -0.17842,-0.70909 -0.46621,-0.70909 z" />
    <path
       inkscape:connector-curvature="0"
       id="path5634"
       style="font-style:normal;font-variant:normal;font-weight:bold;font-stretch:normal;font-size:medium;line-height:11.75819778px;font-family:'Noto Serif CJK JP';-inkscape-font-specification:'Noto Serif CJK JP Bold';letter-spacing:0px;word-spacing:0px;fill:#000000;fill-opacity:1;stroke:none;stroke-width:0.26458332px;stroke-linecap:butt;stroke-linejoin:miter;stroke-opacity:1"
       d="m 126.53561,261.86388 c -0.27051,0 -0.48348,0.31996 -0.48348,0.71774 0,0.39778 0.21297,0.71773 0.48348,0.71773 0.27052,0 0.47197,-0.31995 0.47197,-0.71773 0,-0.39778 -0.20145,-0.71774 -0.47197,-0.71774 z m 0.93243,-3.89994 c 0.0575,0.13834 0.0863,0.28536 0.0863,0.44101 0.006,0.35454 -0.10937,0.51019 -0.43168,0.70908 l -0.3511,0.19024 c -0.36261,0.21618 -0.49499,0.40643 -0.49499,0.75233 0,0.16429 0.0403,0.35453 0.10359,0.68313 l 0.0748,0.35455 h 0.18418 l 0.006,-0.42372 c 0.0173,-0.26808 0.0748,-0.3459 0.33959,-0.52749 l 0.25901,-0.14701 c 0.39714,-0.24213 0.61586,-0.64856 0.61586,-1.32305 0,-1.18469 -0.93243,-1.90241 -1.52526,-2.10131 -0.22448,0.0864 -0.3396,0.25078 -0.3396,0.57937 0,0.29402 0.11512,0.50156 0.46047,0.57938 z" />
    <path
       inkscape:connector-curvature="0"
       id="path5636"
       style="font-style:normal;font-variant:normal;font-weight:bold;font-stretch:normal;font-size:medium;line-height:11.75819778px;font-family:'Noto Serif CJK JP';-inkscape-font-specification:'Noto Serif CJK JP Bold';letter-spacing:0px;word-spacing:0px;fill:#000000;fill-opacity:1;stroke:none;stroke-width:0.26458332px;stroke-linecap:butt;stroke-linejoin:miter;stroke-opacity:1"
       d="m 67.662728,266.39555 c 0.650398,0.55344 1.036032,1.3317 1.156902,1.8073 0.719467,0.63126 1.323819,-1.77271 -1.133879,-1.90241 z m -0.794291,2.72392 c -0.01151,0.89932 -0.31081,1.70353 -0.587085,2.01484 -0.166917,0.20754 -0.253252,0.51019 -0.138138,0.79555 0.138138,0.31995 0.466215,0.31995 0.66191,-0.009 0.287786,-0.46696 0.483481,-1.41817 0.138137,-2.80175 z m 3.424662,2.50774 h -0.05756 c -0.120871,0.60531 -0.23023,1.07227 -0.299299,1.24522 -0.05181,0.0951 -0.103603,0.12971 -0.189939,0.13836 -0.103603,0.009 -0.293543,0.0173 -0.535283,0.0173 h -0.650396 c -0.235985,0 -0.293543,-0.0605 -0.293543,-0.26808 v -0.85608 c 1.145391,-1.3144 1.979972,-2.91416 2.526768,-4.38421 0.149649,0.0346 0.207206,-0.0173 0.241741,-0.1124 l -0.857605,-0.62262 c -0.39139,1.34035 -1.047544,2.87093 -1.910904,4.24586 v -2.70662 c 0.132382,-0.026 0.184183,-0.12111 0.195695,-0.22484 l -0.880627,-0.1297 v 4.04696 c -0.448948,0.58801 -0.938185,1.1155 -1.461957,1.55653 l 0.05181,0.10382 c 0.506505,-0.30266 0.978475,-0.6572 1.410155,-1.06362 v 0.43237 c 0,0.80419 0.212962,0.9858 0.869116,0.9858 h 0.696444 c 1.145391,0 1.433178,-0.1989 1.433178,-0.6745 0,-0.19025 -0.05756,-0.3113 -0.264765,-0.43236 z m -0.143894,-2.49045 c 0.328077,0.76962 0.650398,1.8246 0.679176,2.75851 0.679177,0.91662 1.28353,-1.41817 -0.615863,-2.81039 z" />
    <path
       inkscape:connector-curvature="0"
       id="path5638"
       style="font-style:normal;font-variant:normal;font-weight:bold;font-stretch:normal;font-size:medium;line-height:11.75819778px;font-family:'Noto Serif CJK JP';-inkscape-font-specification:'Noto Serif CJK JP Bold';letter-spacing:0px;word-spacing:0px;fill:#000000;fill-opacity:1;stroke:none;stroke-width:0.26458332px;stroke-linecap:butt;stroke-linejoin:miter;stroke-opacity:1"
       d="m 76.244528,266.26585 c 0.259008,0.34588 0.3511,0.6226 0.443192,0.83878 0.09209,0.1989 0.166915,0.31131 0.259007,0.31131 0.115115,0 0.201451,-0.1211 0.201451,-0.29401 0,-0.17294 -0.03454,-0.3113 -0.161161,-0.4929 -0.172672,-0.24212 -0.385634,-0.33725 -0.684932,-0.47561 z m -0.7022,0.25077 c 0.253252,0.35454 0.328077,0.6226 0.43168,0.86473 0.08634,0.1989 0.161161,0.31995 0.253252,0.31995 0.126626,0 0.212963,-0.1124 0.212963,-0.294 0,-0.16431 -0.04029,-0.32861 -0.166917,-0.50155 -0.166916,-0.24213 -0.397145,-0.37184 -0.67342,-0.50154 z m -1.179925,5.19706 c -0.264764,0 -0.443192,-0.33724 -0.443192,-0.72638 0,-0.45831 0.189939,-0.79556 0.460458,-0.79556 0.241742,0 0.351101,0.3459 0.351101,0.76962 0,0.50154 -0.09785,0.75232 -0.368367,0.75232 z m -0.322322,-4.53987 c 0.161161,0.0433 0.299299,0.0865 0.391391,0.14701 0.09209,0.0605 0.12087,0.1211 0.138137,0.26807 0.01726,0.17295 0.03453,0.44967 0.0518,0.74367 -0.650398,0.1211 -1.738231,0.3286 -1.985728,0.31131 -0.201451,0 -0.287787,-0.147 -0.494993,-0.50156 l -0.08634,0.0519 c -0.0058,0.19025 -0.0058,0.43237 0.03453,0.62262 0.06331,0.3459 0.397146,0.80421 0.621619,0.80421 0.201452,0 0.322322,-0.18161 0.592841,-0.30267 0.276275,-0.1211 0.759757,-0.294 1.346842,-0.40643 0.01151,0.31997 0.02302,0.63126 0.03454,0.8561 -0.07482,-0.026 -0.155405,-0.0346 -0.24174,-0.0346 -0.471971,0 -0.828826,0.57937 -0.828826,1.34034 0,0.87339 0.425924,1.59112 1.001497,1.34899 -0.224473,0.81285 -0.811558,1.36629 -1.513758,1.74676 l 0.04605,0.16431 c 1.266262,-0.26807 2.238981,-1.19334 2.238981,-2.98334 0,-0.45831 -0.06907,-0.88203 -0.241741,-1.18469 0,-0.43237 0,-0.91663 0.0058,-1.34035 1.059055,-0.1297 1.427422,0.1124 1.680675,0.1124 0.172671,0 0.287787,-0.0433 0.287787,-0.33724 0,-0.39779 -0.385635,-0.64856 -0.690689,-0.64856 -0.09209,0 -0.207206,0.1124 -1.266261,0.29401 0,-0.1643 0.0058,-0.29401 0.01151,-0.37184 0.01726,-0.20754 0.115115,-0.38913 0.115115,-0.6226 0,-0.28536 -0.414413,-0.5102 -0.74249,-0.5102 -0.189939,0 -0.379879,0.1643 -0.518016,0.3113 z" />
    <path
       inkscape:connector-curvature="0"
       id="path5640"
       style="font-style:normal;font-variant:normal;font-weight:bold;font-stretch:normal;font-size:medium;line-height:11.75819778px;font-family:'Noto Serif CJK JP';-inkscape-font-specification:'Noto Serif CJK JP Bold';letter-spacing:0px;word-spacing:0px;fill:#000000;fill-opacity:1;stroke:none;stroke-width:0.26458332px;stroke-linecap:butt;stroke-linejoin:miter;stroke-opacity:1"
       d="m 81.132405,267.72725 c 0.28779,0.35454 0.443192,0.71773 0.552548,0.95121 0.09209,0.21618 0.166922,0.33724 0.259007,0.34589 0.126628,0 0.21872,-0.12971 0.21872,-0.3113 0,-0.17295 -0.04601,-0.31995 -0.166914,-0.4929 -0.178425,-0.26807 -0.408657,-0.46697 -0.800052,-0.60533 z m -0.90365,4.71281 c 0,0.31995 -0.126627,0.53614 -0.535284,0.53614 -0.276275,0 -0.661909,-0.10382 -0.978475,-0.24213 0.379879,-0.55344 0.811559,-1.08093 1.243239,-1.37493 0.172672,0.34589 0.27052,0.66584 0.27052,1.08092 z m -0.966964,-5.28354 c 0.379879,0.24212 0.713711,0.61396 0.834581,1.00309 0.04029,0.13836 0.04029,0.23349 -0.06907,0.36319 -0.23023,0.28536 -0.742489,0.72638 -0.742489,1.15875 0,0.44101 0.253251,0.85609 0.541038,1.40952 -0.448947,0.25942 -0.886383,0.64855 -1.29504,1.04633 -0.489237,0.46695 -0.615864,0.56208 -0.713711,0.56208 -0.115115,0 -0.247497,-0.23348 -0.328077,-0.59667 l -0.09785,0.009 c -0.05181,0.17295 -0.08058,0.42372 -0.08058,0.63126 0,0.52749 0.402901,1.11552 0.667665,1.11552 0.235985,0 0.3511,-0.53615 0.541039,-0.83015 l 0.05756,-0.0864 c 0.264764,0.17294 0.518016,0.31995 0.730978,0.44965 0.322321,0.19025 0.51226,0.30266 0.794291,0.30266 0.523775,0 0.782782,-0.38048 0.782782,-1.02903 0,-0.51885 -0.132379,-1.02039 -0.466216,-1.53058 0.07482,-0.0173 0.149651,-0.026 0.224473,-0.026 0.765517,0 1.041787,0.89069 1.208709,1.59112 0.09208,0.41507 0.172666,0.63126 0.374123,0.63126 0.247496,0 0.356852,-0.29401 0.356852,-0.56208 0,-0.31995 -0.0691,-0.59667 -0.235984,-0.94256 -0.264767,-0.54479 -0.800052,-1.03769 -1.536786,-1.03769 -0.189937,0 -0.37412,0.0346 -0.564059,0.10382 -0.31081,-0.40642 -0.707956,-0.87338 -0.707956,-1.21063 0,-0.38049 0.483482,-0.58801 0.759758,-0.61396 0.264762,-0.0173 0.661908,0.12972 0.661908,-0.3459 0,-0.59666 -0.310805,-1.1328 -0.736733,-1.43545 -0.264764,-0.19025 -0.598596,-0.25943 -0.920918,-0.29402 z m 2.405899,-0.0778 c 0.328076,0.35454 0.460456,0.6572 0.56406,0.86474 0.109356,0.21618 0.178426,0.34589 0.28779,0.34589 0.120868,0 0.195689,-0.11239 0.195689,-0.30265 0,-0.1989 -0.06331,-0.36319 -0.207201,-0.53614 -0.161162,-0.19889 -0.408657,-0.3632 -0.78854,-0.47561 z" />
    <path
       inkscape:connector-curvature="0"
       id="path5642"
       style="font-style:normal;font-variant:normal;font-weight:bold;font-stretch:normal;font-size:medium;line-height:11.75819778px;font-family:'Noto Serif CJK JP';-inkscape-font-specification:'Noto Serif CJK JP Bold';letter-spacing:0px;word-spacing:0px;fill:#000000;fill-opacity:1;stroke:none;stroke-width:0.26458332px;stroke-linecap:butt;stroke-linejoin:miter;stroke-opacity:1"
       d="m 83.221739,269.27512 c 0,0.19025 -0.0115,0.44102 0.04601,0.64856 0.09208,0.37183 0.437433,0.76961 0.673416,0.76961 0.212961,0 0.339588,-0.24212 0.650402,-0.61396 0.328076,-0.38913 1.168414,-1.50464 1.928172,-1.50464 0.656153,0 1.024516,0.76096 1.024516,1.60841 0,0.86473 -0.328077,1.48734 -0.828827,1.91106 -0.592835,0.53614 -1.214462,0.72638 -2.014505,0.86474 l 0.0173,0.19889 c 0.84609,0.0951 1.864854,-0.009 2.486472,-0.51019 0.587083,-0.46697 1.047547,-1.16741 1.047547,-2.32614 0,-1.15011 -0.656153,-2.22238 -1.715211,-2.22238 -0.943943,0 -1.813057,0.8388 -2.497993,1.27981 -0.184177,0.13836 -0.27627,0.1643 -0.351099,0.1643 -0.155403,0 -0.305054,-0.18159 -0.385635,-0.32859 z" />
    <path
       inkscape:connector-curvature="0"
       id="path5644"
       style="font-style:normal;font-variant:normal;font-weight:bold;font-stretch:normal;font-size:medium;line-height:11.75819778px;font-family:'Noto Serif CJK JP';-inkscape-font-specification:'Noto Serif CJK JP Bold';letter-spacing:0px;word-spacing:0px;fill:#000000;fill-opacity:1;stroke:none;stroke-width:0.26458332px;stroke-linecap:butt;stroke-linejoin:miter;stroke-opacity:1"
       d="m 91.366101,268.05585 c 0.08061,-0.28537 0.247495,-0.41508 0.247495,-0.65721 0,-0.30265 -0.535285,-0.64855 -0.800043,-0.64855 -0.241744,0 -0.402906,0.1211 -0.523774,0.21619 v 0.12971 c 0.161162,0.0519 0.333836,0.1124 0.425921,0.20754 0.0691,0.0519 0.09209,0.147 0.09209,0.25942 0,0.17294 -0.09209,0.67449 -0.241736,1.2971 -0.443192,0.12971 -0.85185,0.27671 -1.047547,0.27671 -0.149651,0 -0.21872,-0.19024 -0.322325,-0.46695 l -0.08061,0.026 c -0.04601,0.17295 -0.09209,0.36319 -0.06331,0.59667 0.0403,0.35454 0.305053,0.80421 0.477727,0.80421 0.155403,0 0.264767,-0.0951 0.454704,-0.22484 0.103605,-0.0691 0.241744,-0.15565 0.385635,-0.24213 -0.09209,0.33725 -0.189938,0.68315 -0.299302,1.02039 -0.28203,0.86473 -0.592835,1.59112 -0.874873,2.11861 -0.109356,0.19888 -0.13238,0.30265 -0.13238,0.56208 0,0.32859 0.143891,0.53613 0.282031,0.53613 0.15541,0 0.247495,-0.0864 0.374122,-0.41507 0.207209,-0.52749 0.564061,-1.643 0.828827,-2.50774 0.143891,-0.46696 0.322325,-1.08956 0.477728,-1.6603 0.161162,-0.0691 0.310813,-0.11239 0.414409,-0.11239 0.270527,0 0.368371,0.23347 0.368371,0.70043 0,0.86474 -0.161162,2.09266 -0.437441,2.59422 -0.109356,0.21618 -0.201449,0.30265 -0.385626,0.30265 -0.155411,0 -0.379883,-0.14701 -0.667673,-0.37183 l -0.05181,0.1124 c 0.276278,0.44966 0.316565,0.52748 0.345348,0.70043 0.06902,0.43236 0.155403,0.56208 0.379875,0.56208 0.293541,0 0.56406,-0.19888 0.748245,-0.50155 0.425921,-0.70044 0.598595,-1.94565 0.598595,-3.05251 0,-1.15011 -0.299293,-1.56517 -0.759757,-1.56517 -0.109356,0 -0.253247,0.026 -0.391386,0.0519 z m 1.208702,0.70908 c 0.310813,0.1211 0.518021,0.38049 0.667664,0.73503 0.155411,0.37183 0.201457,0.77826 0.201457,1.02903 0.0057,0.23348 -0.04601,0.3286 -0.178434,0.41507 -0.126619,0.0778 -0.322316,0.14701 -0.56406,0.24213 l 0.0173,0.15566 c 0.201449,0.009 0.500742,0.0605 0.62737,0.1297 0.189945,0.1124 0.201449,0.38913 0.402906,0.38049 0.253247,0 0.379874,-0.37185 0.379874,-0.89068 0,-0.67449 -0.14389,-1.27981 -0.466215,-1.72947 -0.287782,-0.41507 -0.679176,-0.59667 -1.053299,-0.62261 z" />
    <path
       inkscape:connector-curvature="0"
       id="path5646"
       style="font-style:normal;font-variant:normal;font-weight:bold;font-stretch:normal;font-size:medium;line-height:11.75819778px;font-family:'Noto Serif CJK JP';-inkscape-font-specification:'Noto Serif CJK JP Bold';letter-spacing:0px;word-spacing:0px;fill:#000000;fill-opacity:1;stroke:none;stroke-width:0.26458332px;stroke-linecap:butt;stroke-linejoin:miter;stroke-opacity:1"
       d="m 97.15061,273.20102 c -0.443193,0 -0.707951,-0.20753 -0.707951,-0.53613 0,-0.26806 0.143891,-0.43237 0.362611,-0.43237 0.316565,0 0.546797,0.37183 0.615858,0.95121 -0.08633,0.009 -0.172666,0.0173 -0.270518,0.0173 z m -1.295035,-6.16556 c -0.03451,0.21618 -0.05181,0.36318 -0.04601,0.56207 0.0173,0.30267 0.27627,0.89068 0.615858,0.89068 0.120876,0 0.21872,-0.1297 0.328076,-0.23347 0.218721,-0.19025 0.57558,-0.48426 0.788541,-0.53615 0.09209,-0.026 0.149651,0.0346 0.05181,0.22484 -0.299293,0.61396 -1.508003,2.32615 -2.072063,3.15629 -0.189937,0.27672 -0.28203,0.46695 -0.293542,0.70044 -0.0115,0.32859 0.115116,0.55342 0.241744,0.56208 0.143891,0.009 0.201449,-0.0691 0.339588,-0.33726 0.48923,-0.95121 1.041787,-1.81594 1.830319,-1.81594 0.661913,0 1.001501,0.58802 0.995741,1.34899 -0.0057,0.59667 -0.201448,1.15009 -0.679176,1.44411 -0.138139,-0.84744 -0.610106,-1.17605 -1.001492,-1.17605 -0.42593,0 -0.771269,0.37184 -0.771269,0.94257 0,0.75232 0.500742,1.19334 1.174166,1.19334 1.185679,0 1.870613,-0.93392 1.876363,-2.09266 0.006,-1.29711 -0.644638,-2.0235 -1.421659,-2.0235 -0.443192,0 -0.771269,0.1989 -0.961206,0.29402 -0.05752,0.026 -0.09209,-0.0346 -0.0288,-0.12971 0.21872,-0.3459 0.926671,-1.26251 1.306554,-1.63435 0.189937,-0.1989 0.391386,-0.26806 0.391386,-0.51019 0,-0.37184 -0.454696,-0.91662 -0.725222,-0.91662 -0.120868,0 -0.120868,0.1297 -0.34534,0.24212 -0.310813,0.14701 -0.91516,0.36319 -1.122369,0.36319 -0.149651,0 -0.293541,-0.25077 -0.391394,-0.52749 z" />
    <path
       inkscape:connector-curvature="0"
       id="path5648"
       style="font-style:normal;font-variant:normal;font-weight:bold;font-stretch:normal;font-size:medium;line-height:11.75819778px;font-family:'Noto Serif CJK JP';-inkscape-font-specification:'Noto Serif CJK JP Bold';letter-spacing:0px;word-spacing:0px;fill:#000000;fill-opacity:1;stroke:none;stroke-width:0.26458332px;stroke-linecap:butt;stroke-linejoin:miter;stroke-opacity:1"
       d="m 102.68763,267.26894 c 0.0633,0.0864 0.0806,0.20754 0.0288,0.38047 -0.17267,0.50156 -1.04179,2.68069 -1.42166,3.66649 -0.31657,0.8215 -0.62738,1.45276 -0.62738,1.90242 0,0.3113 0.12087,0.63991 0.33959,0.63991 0.21297,0 0.31656,-0.23349 0.37988,-0.4929 0.0978,-0.40643 0.1957,-0.93391 0.33959,-1.43547 0.20721,-0.70908 0.6101,-1.47869 1.07632,-1.47869 0.3108,0 0.39715,0.29401 0.39715,0.65719 0,0.55344 -0.0691,1.02904 -0.0633,1.62571 0.006,0.70908 0.30505,1.16739 0.85761,1.16739 0.80004,0 1.49073,-0.8388 1.61736,-2.87092 l -0.0921,-0.0346 c -0.23598,0.93392 -0.74824,1.9543 -1.35835,1.9543 -0.23598,0 -0.39139,-0.147 -0.39139,-0.57937 0,-0.4756 0.0288,-1.14145 -0.0518,-1.53058 -0.0518,-0.40642 -0.25901,-0.77826 -0.74825,-0.77826 -0.18418,0 -0.44319,0.0951 -0.71946,0.30266 -0.0403,0.0346 -0.0518,0.009 -0.0345,-0.0433 0.23598,-0.58803 0.73673,-1.56519 1.03027,-2.01484 0.16117,-0.25077 0.34534,-0.3459 0.34534,-0.54478 0,-0.3459 -0.30505,-0.89069 -0.75975,-0.9858 -0.12663,-0.0346 -0.33959,0 -0.47773,0.0778 l -0.0115,0.12972 c 0.1036,0.0605 0.25901,0.17294 0.34534,0.28536 z" />
    <path
       inkscape:connector-curvature="0"
       id="path5650"
       style="font-style:normal;font-variant:normal;font-weight:bold;font-stretch:normal;font-size:medium;line-height:11.75819778px;font-family:'Noto Serif CJK JP';-inkscape-font-specification:'Noto Serif CJK JP Bold';letter-spacing:0px;word-spacing:0px;fill:#000000;fill-opacity:1;stroke:none;stroke-width:0.26458332px;stroke-linecap:butt;stroke-linejoin:miter;stroke-opacity:1"
       d="m 106.24467,267.95208 c -0.023,0.12971 -0.0518,0.32859 -0.046,0.53613 0.0173,0.42372 0.41442,0.9858 0.68493,0.9858 0.16116,0 0.28203,-0.19024 0.4029,-0.294 0.34535,-0.31131 1.13964,-0.73503 1.81882,-0.96852 0.0575,-0.026 0.0633,0.026 0.0173,0.0778 -0.65615,0.66584 -1.03602,1.74676 -1.03602,2.98334 0,1.09821 0.259,1.69488 0.65615,2.06671 0.36261,0.35454 0.78278,0.43237 1.22596,0.43237 0.26477,0 0.55256,-0.0951 0.55256,-0.4929 0,-0.3286 -0.2475,-0.60532 -0.44319,-0.60532 -0.16692,0 -0.40291,0.026 -0.71947,-0.1124 -0.38564,-0.1297 -0.73674,-0.51019 -0.73674,-1.59976 0,-1.47005 0.48349,-2.17913 0.69069,-2.39531 0.30506,-0.32861 0.65615,-0.3632 0.92092,-0.3632 0.16116,0 0.3511,0.0346 0.5065,0.0346 0.18419,0 0.30506,-0.17295 0.30506,-0.38913 0,-0.23349 -0.11511,-0.38913 -0.27052,-0.4929 -0.14964,-0.10382 -0.31657,-0.13836 -0.48924,-0.13836 -0.17843,0 -0.78277,0.21618 -1.39289,0.44102 -1.013,0.36319 -1.85334,0.69178 -2.19869,0.69178 -0.14964,0 -0.27627,-0.21618 -0.37987,-0.43236 z m 4.14989,0.81285 c 0.29929,0.3459 0.42017,0.58802 0.52377,0.79555 0.10936,0.2162 0.17843,0.3459 0.28778,0.3459 0.12088,0 0.18994,-0.1124 0.18994,-0.30265 0,-0.1989 -0.0575,-0.3632 -0.20145,-0.53614 -0.16116,-0.1816 -0.42592,-0.31995 -0.754,-0.42372 z m -0.52378,0.56208 c 0.26477,0.3459 0.4029,0.66585 0.51227,0.89932 0.0921,0.19889 0.16691,0.32861 0.259,0.33725 0.12663,0 0.21296,-0.12971 0.21296,-0.3113 0,-0.17295 -0.0403,-0.31996 -0.16116,-0.4929 -0.17842,-0.24213 -0.44894,-0.40643 -0.77127,-0.54478 z" />
    <path
       inkscape:connector-curvature="0"
       id="path5652"
       style="font-style:normal;font-variant:normal;font-weight:bold;font-stretch:normal;font-size:medium;line-height:11.75819778px;font-family:'Noto Serif CJK JP';-inkscape-font-specification:'Noto Serif CJK JP Bold';letter-spacing:0px;word-spacing:0px;fill:#000000;fill-opacity:1;stroke:none;stroke-width:0.26458332px;stroke-linecap:butt;stroke-linejoin:miter;stroke-opacity:1"
       d="m 114.39479,271.59262 c -0.26476,0 -0.44319,-0.33725 -0.44319,-0.72638 0,-0.45832 0.18994,-0.79556 0.46046,-0.79556 0.24174,0 0.3511,0.3459 0.3511,0.76962 0,0.50155 -0.0978,0.75232 -0.36837,0.75232 z m -0.32232,-4.53987 c 0.16116,0.0433 0.2993,0.0864 0.39139,0.14701 0.0921,0.0605 0.12087,0.1211 0.13813,0.26806 0.0173,0.17295 0.0345,0.44967 0.0518,0.74367 -0.6504,0.1211 -1.73823,0.32861 -1.98573,0.31131 -0.20145,0 -0.28778,-0.147 -0.49499,-0.50154 l -0.0863,0.0519 c -0.006,0.19023 -0.006,0.43236 0.0345,0.6226 0.0633,0.3459 0.39715,0.80421 0.62163,0.80421 0.20144,0 0.32231,-0.1816 0.59283,-0.30265 0.27628,-0.1211 0.75976,-0.29402 1.34684,-0.40644 0.0115,0.31996 0.023,0.63126 0.0345,0.85609 -0.0748,-0.026 -0.1554,-0.0346 -0.24173,-0.0346 -0.47198,0 -0.82883,0.57937 -0.82883,1.34033 0,0.87339 0.42592,1.59112 1.00149,1.34899 -0.22447,0.81285 -0.81155,1.36629 -1.51375,1.74678 l 0.046,0.16429 c 1.26626,-0.26806 2.23898,-1.19333 2.23898,-2.98334 0,-0.45831 -0.0691,-0.88203 -0.24174,-1.18468 0,-0.43237 0,-0.91662 0.006,-1.34035 1.05906,-0.12971 1.42743,0.1124 1.68068,0.1124 0.17267,0 0.28778,-0.0433 0.28778,-0.33725 0,-0.39778 -0.38563,-0.64855 -0.69069,-0.64855 -0.0921,0 -0.2072,0.1124 -1.26625,0.29401 0,-0.1643 0.006,-0.29401 0.0115,-0.37184 0.0173,-0.20753 0.11511,-0.38913 0.11511,-0.62261 0,-0.28536 -0.4144,-0.51019 -0.74248,-0.51019 -0.18995,0 -0.37988,0.16429 -0.51802,0.31131 z" />
    <path
       inkscape:connector-curvature="0"
       id="path5654"
       style="font-style:normal;font-variant:normal;font-weight:bold;font-stretch:normal;font-size:medium;line-height:11.75819778px;font-family:'Noto Serif CJK JP';-inkscape-font-specification:'Noto Serif CJK JP Bold';letter-spacing:0px;word-spacing:0px;fill:#000000;fill-opacity:1;stroke:none;stroke-width:0.26458332px;stroke-linecap:butt;stroke-linejoin:miter;stroke-opacity:1"
       d="m 119.26989,273.22697 c -0.33382,0 -0.56406,-0.19025 -0.56406,-0.50155 0,-0.32859 0.31657,-0.64856 0.86337,-0.64856 0.2072,0 0.4029,0.0346 0.57557,0.0864 -0.0173,0.75232 -0.28203,1.06363 -0.87488,1.06363 z m 1.32958,-4.4361 c 0.023,-0.31995 0.0518,-0.62261 0.0806,-0.76961 0.0518,-0.23349 0.1554,-0.31996 0.1554,-0.53614 0,-0.31131 -0.43743,-0.73503 -0.82883,-0.73503 -0.2072,0 -0.40865,0.15566 -0.56406,0.29401 l 0.0115,0.1124 c 0.10936,0.026 0.2993,0.0778 0.43168,0.18161 0.0979,0.0691 0.13814,0.13836 0.14965,0.31129 0.0115,0.23349 0.0403,1.53924 0.0518,2.01484 0.0115,0.4929 0.0403,1.13281 0.0518,1.81594 -0.0633,-0.009 -0.13239,-0.009 -0.20145,-0.009 -0.82307,0 -1.51951,0.42372 -1.51951,1.36629 0,0.75232 0.47772,1.16739 1.12237,1.16739 0.9094,0 1.16265,-0.63126 1.16265,-1.32305 0,-0.0865 -0.006,-0.17294 -0.0115,-0.25077 0.10935,0.0691 0.21296,0.147 0.31081,0.23348 0.5583,0.48424 0.77127,1.07227 1.0533,1.07227 0.16115,0 0.26476,-0.12972 0.26476,-0.41508 0,-0.56207 -0.43743,-1.03768 -0.86912,-1.34033 -0.21296,-0.147 -0.50075,-0.31131 -0.83457,-0.41508 -0.046,-0.60531 -0.0633,-1.28845 -0.0633,-1.68624 0,-0.16429 0.006,-0.40642 0.0173,-0.66583 0.1554,0.1297 0.34534,0.26806 0.50075,0.26806 0.37412,0 0.79429,-0.17295 0.93243,-0.25077 0.16691,-0.1124 0.22447,-0.23349 0.22447,-0.40643 0,-0.38048 -0.30506,-0.48425 -0.52377,-0.48425 -0.046,0 -0.15541,0.1211 -0.35686,0.22483 -0.22447,0.12971 -0.55255,0.22483 -0.71371,0.22483 z" />
    <path
       inkscape:connector-curvature="0"
       id="path5656"
       style="font-style:normal;font-variant:normal;font-weight:bold;font-stretch:normal;font-size:medium;line-height:11.75819778px;font-family:'Noto Serif CJK JP';-inkscape-font-specification:'Noto Serif CJK JP Bold';letter-spacing:0px;word-spacing:0px;fill:#000000;fill-opacity:1;stroke:none;stroke-width:0.26458332px;stroke-linecap:butt;stroke-linejoin:miter;stroke-opacity:1"
       d="m 124.20256,273.70257 c 0.27052,0 0.47773,-0.31995 0.47773,-0.71773 0,-0.39778 -0.20721,-0.71773 -0.47773,-0.71773 -0.26476,0 -0.47773,0.31995 -0.47773,0.71773 0,0.39778 0.21297,0.71773 0.47773,0.71773 z m 0,-6.67576 c -0.28778,0 -0.46045,0.24213 -0.46045,0.70908 0,0.40642 0.0748,1.11551 0.25324,2.39533 l 0.12088,1.29709 h 0.17842 l 0.11512,-1.29709 c 0.18419,-1.27982 0.25901,-1.98891 0.25901,-2.39533 0,-0.46695 -0.17843,-0.70908 -0.46622,-0.70908 z" />
    <path
       inkscape:connector-curvature="0"
       id="path5658"
       style="font-style:normal;font-variant:normal;font-weight:bold;font-stretch:normal;font-size:medium;line-height:11.75819778px;font-family:'Noto Serif CJK JP';-inkscape-font-specification:'Noto Serif CJK JP Bold';letter-spacing:0px;word-spacing:0px;fill:#000000;fill-opacity:1;stroke:none;stroke-width:0.26458332px;stroke-linecap:butt;stroke-linejoin:miter;stroke-opacity:1"
       d="m 126.24333,272.26711 c -0.27052,0 -0.48348,0.31995 -0.48348,0.71773 0,0.39778 0.21296,0.71773 0.48348,0.71773 0.27053,0 0.47197,-0.31995 0.47197,-0.71773 0,-0.39778 -0.20144,-0.71773 -0.47197,-0.71773 z m 0.93243,-3.89996 c 0.0575,0.13836 0.0863,0.28537 0.0863,0.44101 0.006,0.35455 -0.10935,0.5102 -0.43167,0.70909 l -0.3511,0.19025 c -0.36261,0.21618 -0.495,0.40642 -0.495,0.75231 0,0.16431 0.0403,0.35455 0.10361,0.68314 l 0.0748,0.35454 h 0.18418 l 0.006,-0.42372 c 0.0173,-0.26806 0.0748,-0.34589 0.33958,-0.52749 l 0.25901,-0.147 c 0.39715,-0.24213 0.61587,-0.64855 0.61587,-1.32304 0,-1.1847 -0.93243,-1.90243 -1.52528,-2.10131 -0.22447,0.0864 -0.33959,0.25077 -0.33959,0.57937 0,0.29401 0.11512,0.50155 0.46046,0.57937 z" />
    <g
       id="g5592"
       transform="matrix(0.44852903,0,0,0.3779353,0.47199652,215.73147)"
       style="stroke-width:2.42882371">
      <path
         style="color:#000000;font-style:normal;font-variant:normal;font-weight:normal;font-stretch:normal;font-size:medium;line-height:normal;font-family:sans-serif;font-variant-ligatures:normal;font-variant-position:normal;font-variant-caps:normal;font-variant-numeric:normal;font-variant-alternates:normal;font-feature-settings:normal;text-indent:0;text-align:start;text-decoration:none;text-decoration-line:none;text-decoration-style:solid;text-decoration-color:#000000;letter-spacing:normal;word-spacing:normal;text-transform:none;writing-mode:lr-tb;direction:ltr;text-orientation:mixed;dominant-baseline:auto;baseline-shift:baseline;text-anchor:start;white-space:normal;shape-padding:0;clip-rule:nonzero;display:inline;overflow:visible;visibility:visible;opacity:1;isolation:auto;mix-blend-mode:normal;color-interpolation:sRGB;color-interpolation-filters:linearRGB;solid-color:#000000;solid-opacity:1;vector-effect:none;fill:#000000;fill-opacity:1;fill-rule:evenodd;stroke:none;stroke-width:3.85575819;stroke-linecap:butt;stroke-linejoin:miter;stroke-miterlimit:4;stroke-dasharray:none;stroke-dashoffset:0;stroke-opacity:1;color-rendering:auto;image-rendering:auto;shape-rendering:auto;text-rendering:auto;enable-background:accumulate"
         d="m 119.4082,64.988281 v 25.767578 h 1.58594 V 64.988281 Z"
         id="path4973"
         inkscape:connector-curvature="0" />
      <path
         id="path5596"
         style="fill:#000000;fill-opacity:1;fill-rule:evenodd;stroke:#000000;stroke-width:1.4459095;stroke-linejoin:round;stroke-opacity:1"
         d="m 124.04317,82.451434 -3.82688,10.4069 -3.82688,-10.406901 c 2.25939,1.662588 5.35063,1.653008 7.65376,1e-6 z"
         inkscape:connector-curvature="0" />
    </g>
    <ellipse
       style="opacity:1;fill:#ffffff;fill-opacity:1;fill-rule:evenodd;stroke:#000000;stroke-width:0.69999999;stroke-linecap:round;stroke-linejoin:miter;stroke-miterlimit:4;stroke-dasharray:none;stroke-dashoffset:0;stroke-opacity:1;paint-order:fill markers stroke"
       id="path5322"
       cx="54.385658"
       cy="240.26047"
       rx="4.3156123"
       ry="4.2887983" />
    <g
       aria-label="B"
       style="font-style:normal;font-variant:normal;font-weight:normal;font-stretch:normal;font-size:5.1749177px;line-height:8.62486172px;font-family:'Noto Serif CJK JP';-inkscape-font-specification:'Noto Serif CJK JP';letter-spacing:0px;word-spacing:0px;fill:#000000;fill-opacity:1;stroke:none;stroke-width:0.59173238px;stroke-linecap:butt;stroke-linejoin:miter;stroke-opacity:1"
       id="text4588"
       transform="matrix(0.44852903,0,0,0.44574221,0.47199652,211.2928)">
      <path
         d="M 115.74935,71.527992 V 58.446953 h 4.2765 q 2.12926,0 3.19838,0.880454 1.07811,0.880455 1.07811,2.605427 0,0.916392 -0.52108,1.626146 -0.52109,0.70077 -1.41951,1.087092 1.06014,0.296479 1.67106,1.132013 0.61992,0.826549 0.61992,1.97653 0,1.76091 -1.141,2.767143 -1.141,1.006234 -3.22534,1.006234 z m 1.72498,-6.118261 v 4.707737 h 2.848 q 1.20388,0 1.89567,-0.619912 0.70077,-0.628896 0.70077,-1.724972 0,-2.362853 -2.56949,-2.362853 z m 0,-1.383571 h 2.60542 q 1.13202,0 1.80583,-0.566007 0.6828,-0.566006 0.6828,-1.536303 0,-1.078108 -0.62889,-1.563256 -0.6289,-0.494133 -1.91364,-0.494133 h -2.55152 z"
         style="font-style:normal;font-variant:normal;font-weight:normal;font-stretch:normal;font-size:18.39970398px;font-family:Roboto;-inkscape-font-specification:Roboto;stroke-width:0.59173238px"
         id="path5564"
         inkscape:connector-curvature="0" />
    </g>
    <g
       id="g5480"
       transform="matrix(0.46002235,0,0,0.45716413,-7.785479,200.799)"
       style="stroke-width:2.18059206">
      <path
         inkscape:connector-curvature="0"
         id="path4558"
         d="m 131.40405,115.61488 c -0.84173,0 -1.62692,0.24348 -2.29665,0.65783 -0.48247,-0.0563 -1.0969,-0.10225 -1.79212,-0.0857 -1.59692,0.0379 -3.57137,0.40043 -5.08403,1.69976 -1.43002,1.22831 -3.06302,3.40569 -4.47812,5.76233 -1.4151,2.35666 -2.59026,4.84727 -2.9521,6.80047 -0.35163,1.89807 -0.28544,4.23757 -0.0752,6.27689 0.10511,1.01964 0.2479,1.96101 0.40269,2.72884 0.15479,0.76785 0.28889,1.32248 0.50931,1.75784 0.25857,0.51074 0.69389,0.95137 1.30611,1.59028 0.61223,0.63892 1.3723,1.37962 2.14054,2.09769 0.76822,0.71805 1.54167,1.41188 2.1805,1.95537 0.31942,0.27175 0.60444,0.50505 0.84393,0.68923 0.23953,0.18419 0.38907,0.30704 0.63688,0.42079 0.54972,0.25226 1.36558,0.44857 2.20526,0.61878 0.41984,0.085 0.83344,0.15526 1.18951,0.19991 0.11175,0.014 0.20259,-0.003 0.29843,0.007 -0.33709,0.77675 -0.69639,1.62825 -0.82012,2.33331 -0.13453,0.76652 -0.27462,1.80905 -0.37984,2.62127 -0.66338,0.77846 -1.0667,1.78402 -1.06669,2.88164 -1e-5,1.82528 1.11054,3.40075 2.68934,4.08781 l -0.55215,14.91896 c -0.006,0.0338 -0.14921,0.94304 -0.38318,2.05818 -0.23825,1.13565 -0.59335,2.47918 -0.86534,3.03111 -0.31568,0.64059 -1.37983,2.49337 -2.33855,4.13064 -0.87266,1.4903 -1.52892,2.58933 -1.66548,2.81834 -0.98296,0.23889 -1.86602,0.58788 -2.59795,1.02766 -1.2131,0.7289 -2.11101,1.7825 -2.01632,3.04967 0.0948,1.26719 1.13911,2.17554 2.44708,2.716 1.30797,0.54047 2.98558,0.77834 4.80179,0.64259 1.81622,-0.13574 3.43971,-0.62007 4.65281,-1.34896 1.15357,-0.69312 2.02006,-1.68061 2.02105,-2.86546 0.0749,-0.19611 0.53464,-1.40289 1.06955,-2.9221 0.57988,-1.64692 1.19569,-3.46186 1.36705,-4.53714 0.14634,-0.91833 0.41112,-2.71916 0.73398,-4.27963 0.15733,-0.76048 0.331,-1.45188 0.49502,-1.93585 0.0876,0.12487 0.1516,0.20045 0.2537,0.36175 0.43032,0.67984 0.96382,1.64309 1.50555,2.66221 1.0835,2.03827 2.17982,4.2703 2.74362,5.21734 0.61516,1.0333 1.7547,2.11511 2.76503,3.01492 0.37446,0.3335 0.71186,0.61857 1.01242,0.8682 -1.06729,0.65376 -1.86257,1.43488 -2.31045,2.26048 -0.55639,1.02563 -0.58176,2.18567 0.28178,3.12678 0.86355,0.94113 2.3415,1.36404 3.8522,1.37846 1.5107,0.0143 3.13993,-0.35275 4.62757,-1.08048 1.48764,-0.72774 2.57135,-1.68753 3.12774,-2.71315 0.55638,-1.02562 0.58461,-2.18518 -0.27894,-3.12631 -0.62951,-0.68606 -1.5885,-1.09434 -2.6465,-1.27232 -0.3146,-0.78166 -2.10126,-5.20135 -2.954,-6.81761 -0.30823,-0.58424 -0.74904,-2.36491 -1.0291,-3.8874 -0.2758,-1.49938 -0.44267,-2.76518 -0.4479,-2.80454 l -0.10047,-16.19961 c 0.45213,-0.35015 0.91628,-0.72604 1.38276,-1.12524 1.64972,-1.4118 3.25246,-3.01446 4.04592,-4.51191 0.87825,-1.65747 0.63743,-3.96684 0.0847,-6.18169 -0.55271,-2.21484 -1.44497,-4.29126 -2.46991,-5.45437 -0.6159,-0.69893 -1.55642,-1.10464 -2.65746,-1.4827 -1.10103,-0.37806 -2.36703,-0.68228 -3.57279,-0.92438 -0.0956,-0.0818 -0.22584,-0.13023 -0.37983,-0.15375 1.65301,-1.61011 2.68269,-3.85711 2.68269,-6.34066 -1e-5,-4.88189 -3.97297,-8.85486 -8.85486,-8.85486 -0.0922,0 -0.18314,0.004 -0.27464,0.007 0.8446,-0.80143 1.37562,-1.93047 1.37562,-3.18057 0,-2.41671 -1.97479,-4.39147 -4.3915,-4.39148 z m 0,1.46272 c 1.62646,1e-5 2.92925,1.30231 2.92925,2.92876 0,1.62647 -1.30279,2.92877 -2.92925,2.92877 -1.62646,1e-5 -2.92877,-1.3023 -2.92877,-2.92877 0,-1.62646 1.30231,-2.92876 2.92877,-2.92876 z m -4.19775,0.66639 c 0.15482,8e-5 0.29854,0.006 0.43599,0.0124 -0.39669,0.65947 -0.62925,1.42789 -0.62925,2.25 0,1.04627 0.37088,2.00883 0.98672,2.76503 -1.18606,0.26294 -2.41427,0.57797 -3.46234,0.94627 -1.05939,0.37228 -1.93446,0.71704 -2.48991,1.42273 -1.39091,1.76716 -2.12632,3.2359 -2.20907,4.5462 -0.0302,0.47774 -0.1561,1.70726 -0.11327,2.96493 0.0429,1.25766 0.15231,2.61384 1.09714,3.48282 0.60969,0.56072 1.49367,1.38181 2.3928,2.11387 0.89918,0.73207 1.74267,1.38746 2.63225,1.62455 0.83545,0.22267 1.75091,0.11303 2.51465,-0.0105 0.38188,-0.062 0.71737,-0.13409 0.96435,-0.1961 l 0.446,-0.13661 c 0.0236,-0.0105 0.0575,-0.0254 0.11467,-0.0637 1.38573,0.90018 3.03599,1.42557 4.80751,1.42557 1.55282,0 3.01314,-0.4035 4.28343,-1.10905 0.61259,0.0276 1.28225,0.0909 1.97204,0.22942 1.1658,0.2341 2.38049,0.52789 3.37857,0.87059 0.99806,0.34272 1.77626,0.78166 2.01486,1.05241 0.68402,0.77626 1.62853,2.78299 2.13721,4.82132 0.50866,2.03834 0.55454,4.15071 0.0466,5.10926 -0.5927,1.11858 -2.11613,2.72153 -3.6932,4.07115 -1.57708,1.34962 -3.26373,2.50413 -4.00641,2.85356 -0.2035,0.0958 -1.12623,0.2771 -2.21289,0.35604 -1.08665,0.079 -2.39478,0.10757 -3.64846,0.11001 -1.09436,0.002 -2.00071,-0.0168 -2.72075,-0.0377 0.52563,-0.73127 0.83916,-1.6245 0.83916,-2.58938 0,-0.60562 -0.12363,-1.18321 -0.3446,-1.71071 0.72918,-0.013 1.45062,-0.0296 2.08007,-0.0558 0.86921,-0.036 1.49993,-0.0619 1.9701,-0.17468 0.6868,-0.16476 1.66619,-0.54427 2.63938,-0.98912 0.9732,-0.44485 1.87356,-0.90207 2.44659,-1.40703 0.47545,-0.41896 0.6476,-0.91158 0.93342,-1.57409 0.28581,-0.66251 0.57651,-1.44864 0.84012,-2.21097 0.52722,-1.52467 0.94628,-2.95068 0.94628,-2.95068 l -1.44797,-0.42791 c 0,0 -0.41318,1.40019 -0.92628,2.88403 -0.25655,0.74192 -0.53856,1.50517 -0.79871,2.10816 -0.26014,0.60301 -0.60678,1.09088 -0.54691,1.03813 -0.25814,0.22747 -1.16359,0.74852 -2.07627,1.1657 -0.91267,0.41719 -1.89745,0.78441 -2.36186,0.89582 -0.10547,0.0254 -0.83473,0.0983 -1.67883,0.13326 -0.84409,0.035 -1.87317,0.0559 -2.86735,0.0686 -0.0672,8.7e-4 -0.11316,6.5e-4 -0.17993,0.002 -0.80207,-0.77185 -1.88827,-1.24993 -3.08346,-1.24993 -0.67062,0 -1.3056,0.15385 -1.87731,0.42171 0.14944,-0.39407 0.28716,-0.82092 0.35508,-1.20805 0.0717,-0.40881 0.43309,-1.37421 0.7754,-2.15672 0.3423,-0.78249 0.6602,-1.42321 0.6602,-1.42321 l -1.27709,-0.79347 c 0,0 -0.28342,0.26411 -0.42982,0.30558 9.2e-4,9.3e-4 -0.002,0.002 -0.0161,0.006 0.004,-8.8e-4 0.0105,-0.004 0.0161,-0.006 -0.006,-0.008 -0.24872,5.3e-4 -0.5074,-0.0319 -0.30206,-0.0379 -0.68549,-0.10268 -1.07574,-0.18185 -0.78051,-0.15819 -1.64554,-0.40547 -1.87492,-0.51074 0.0531,0.0243 -0.13877,-0.0864 -0.34699,-0.24656 -0.20825,-0.16013 -0.47747,-0.38095 -0.78444,-0.6421 -0.61394,-0.52231 -1.37701,-1.20533 -2.13006,-1.9092 -0.75304,-0.70387 -1.49866,-1.42994 -2.08149,-2.03819 -0.58286,-0.60824 -1.03162,-1.19587 -1.0472,-1.22661 -0.0537,-0.10618 -0.23436,-0.66487 -0.37746,-1.37467 -0.1431,-0.70982 -0.2813,-1.61071 -0.38174,-2.58512 -0.20087,-1.94881 -0.24377,-4.20973 0.0595,-5.84705 0.29311,-1.58217 1.40293,-4.03545 2.76171,-6.29829 1.35876,-2.26287 2.98815,-4.38145 4.16632,-5.39346 1.23248,-1.05865 2.82968,-1.28958 3.99119,-1.28898 z m 2.36043,6.24356 c 0.27173,0.1263 0.55736,0.22588 0.85534,0.29463 -2.72917,1.51043 -4.58234,4.41906 -4.58234,7.75247 0,2.44901 1.00034,4.66934 2.61318,6.27449 -0.10757,0.021 -0.2142,0.0422 -0.33319,0.0615 -0.66914,0.10861 -1.50649,0.1439 -1.88398,0.0433 -0.32336,-0.0863 -1.221,-0.6499 -2.06675,-1.33848 -0.84575,-0.68859 -1.71,-1.48945 -2.32425,-2.05438 -0.27909,-0.25668 -0.57203,-1.30017 -0.61021,-2.42183 -0.0382,-1.12167 0.076,-2.25046 0.11187,-2.81692 0.0491,-0.77806 0.59773,-2.06583 1.88873,-3.70606 0.11502,-0.14615 0.83986,-0.59368 1.80257,-0.93199 0.96272,-0.33831 2.16372,-0.64985 3.3267,-0.90676 0.41138,-0.0909 0.81178,-0.17263 1.20235,-0.24989 z m 5.12784,0.65449 c 4.09162,0 7.39403,3.30098 7.39403,7.39261 0,4.09163 -3.30241,7.39355 -7.39403,7.39355 -4.09162,0 -7.39213,-3.30192 -7.39213,-7.39355 0,-4.09163 3.30052,-7.39261 7.39213,-7.39261 z m -6.06601,28.99161 c 1.66213,0 2.9954,1.33278 2.9954,2.99493 0,1.66214 -1.33327,2.99399 -2.9954,2.99399 -1.66215,0 -2.99351,-1.33185 -2.99351,-2.99399 0,-1.66215 1.33136,-2.99493 2.99351,-2.99493 z m 14.30017,5.66715 0.0936,15.21548 0.007,0.0472 c 0,0 0.17797,1.35727 0.46599,2.92304 0.28802,1.56578 0.63003,3.27992 1.17855,4.31961 0.57791,1.09535 1.94319,4.37789 2.61653,6.01558 -1.15384,0.0474 -2.35766,0.30974 -3.50472,0.77871 -0.3088,-0.24641 -0.80568,-0.64969 -1.48128,-1.25137 -0.96742,-0.86161 -2.06196,-1.97045 -2.47182,-2.65889 -0.46123,-0.77472 -1.60877,-3.08869 -2.7079,-5.1564 -0.54958,-1.03385 -1.09143,-2.01405 -1.56316,-2.75932 -0.23585,-0.37263 -0.45092,-0.68467 -0.66543,-0.93579 -0.10722,-0.12557 -0.21132,-0.23678 -0.34939,-0.34177 -0.13806,-0.105 -0.32121,-0.247 -0.67066,-0.23036 -0.52941,0.0253 -0.74986,0.36609 -0.89962,0.6064 -0.14976,0.2403 -0.25538,0.50075 -0.35984,0.80252 -0.20893,0.60354 -0.39169,1.36244 -0.55978,2.17479 -0.33614,1.62474 -0.60564,3.45332 -0.74825,4.34817 -0.11758,0.73793 -0.72704,2.64863 -1.29897,4.27297 -0.20092,0.5706 -0.36937,1.02627 -0.53977,1.49081 -0.42157,-0.39796 -0.96127,-0.72154 -1.55696,-0.96769 -1.30799,-0.54047 -2.9851,-0.77786 -4.80133,-0.64212 -0.0392,0.002 -0.0771,0.008 -0.11618,0.0116 0.34516,-0.58202 0.4902,-0.82188 1.03101,-1.74544 0.96256,-1.64382 1.99734,-3.43107 2.38899,-4.22584 0.43536,-0.88344 0.74261,-2.21244 0.98958,-3.38953 0.24696,-1.1771 0.4027,-2.16957 0.4027,-2.16957 l 0.007,-0.0447 0.56405,-14.7162 c 0.0827,0.004 0.16501,0.0124 0.24894,0.0124 0.65545,0 1.27661,-0.1466 1.83827,-0.40318 0.47205,0.0192 2.26698,0.089 4.50287,0.0847 1.27466,-0.002 2.60797,-0.0315 3.75461,-0.11466 1.14667,-0.0833 2.0502,-0.16789 2.74551,-0.49504 0.40891,-0.1924 0.9074,-0.48718 1.45893,-0.85583 z m -19.10721,29.52947 c 1.37619,-0.0309 2.61941,0.1905 3.51424,0.56023 1.02266,0.42258 1.48366,0.97422 1.51793,1.43273 0.0342,0.45854 -0.34001,1.07086 -1.28851,1.64074 -0.94846,0.56991 -2.3752,1.01815 -3.98641,1.13858 -1.61122,0.1204 -3.08895,-0.11106 -4.11161,-0.53359 -1.02265,-0.42257 -1.48317,-0.97231 -1.51746,-1.43083 -0.0342,-0.45851 0.33956,-1.07226 1.28804,-1.64216 0.94849,-0.56987 2.37521,-1.01624 3.98641,-1.13667 0.2014,-0.015 0.40078,-0.0245 0.59737,-0.029 z m 24.09986,0.30415 c 1.1192,0.0105 1.89933,0.29418 2.30332,0.73446 0.40399,0.44027 0.46459,1.07323 0.0522,1.83304 -0.41218,0.75983 -1.2991,1.57658 -2.55701,2.19193 -1.25791,0.61535 -2.62923,0.90364 -3.74842,0.89295 -1.1192,-0.0105 -1.89981,-0.29178 -2.30379,-0.73206 -0.40399,-0.44027 -0.46458,-1.0756 -0.0522,-1.83542 0.41219,-0.75983 1.29911,-1.5766 2.55701,-2.19194 1.25791,-0.61535 2.62971,-0.90365 3.7489,-0.89296 z"
         style="color:#000000;font-style:normal;font-variant:normal;font-weight:normal;font-stretch:normal;font-size:medium;line-height:normal;font-family:sans-serif;font-variant-ligatures:normal;font-variant-position:normal;font-variant-caps:normal;font-variant-numeric:normal;font-variant-alternates:normal;font-feature-settings:normal;text-indent:0;text-align:start;text-decoration:none;text-decoration-line:none;text-decoration-style:solid;text-decoration-color:#000000;letter-spacing:normal;word-spacing:normal;text-transform:none;writing-mode:lr-tb;direction:ltr;text-orientation:mixed;dominant-baseline:auto;baseline-shift:baseline;text-anchor:start;white-space:normal;shape-padding:0;clip-rule:nonzero;display:inline;overflow:visible;visibility:visible;opacity:1;isolation:auto;mix-blend-mode:normal;color-interpolation:sRGB;color-interpolation-filters:linearRGB;solid-color:#000000;solid-opacity:1;vector-effect:none;fill:#000000;fill-opacity:1;fill-rule:evenodd;stroke:none;stroke-width:3.57708001;stroke-linecap:butt;stroke-linejoin:miter;stroke-miterlimit:4;stroke-dasharray:none;stroke-dashoffset:0;stroke-opacity:1;color-rendering:auto;image-rendering:auto;shape-rendering:auto;text-rendering:auto;enable-background:accumulate" />
      <path
         inkscape:connector-curvature="0"
         id="path5456"
         d="m 133.13586,139.18244 c -4.22788,-0.92014 -6.80108,-5.49631 -5.34549,-9.5064 0.66984,-1.84538 1.87086,-3.24748 3.51569,-4.10427 2.16407,-1.12727 4.47368,-1.14877 6.68764,-0.0623 1.08215,0.53107 2.46864,1.85098 3.0801,2.93219 0.51902,0.91774 0.95742,2.56091 0.95742,3.58845 0,0.97173 -0.42404,2.63084 -0.89911,3.51787 -0.53602,1.00084 -2.06446,2.47452 -3.10993,2.99852 -1.53211,0.76791 -3.25157,0.99167 -4.88632,0.63589 z"
         style="opacity:1;fill:#ffffff;fill-opacity:1;fill-rule:evenodd;stroke:none;stroke-width:3.46169043;stroke-linecap:round;stroke-linejoin:miter;stroke-miterlimit:4;stroke-dasharray:none;stroke-dashoffset:0;stroke-opacity:1;paint-order:fill markers stroke" />
      <path
         inkscape:connector-curvature="0"
         id="path5458"
         d="m 130.20455,122.58768 c -1.73588,-0.91351 -2.199,-3.00529 -0.97422,-4.40024 1.17958,-1.34347 3.17428,-1.34347 4.35386,0 1.20355,1.37077 0.75136,3.50841 -0.92283,4.36253 -0.62798,0.32037 -1.8831,0.33964 -2.45681,0.0377 z"
         style="opacity:1;fill:#ffffff;fill-opacity:1;fill-rule:evenodd;stroke:none;stroke-width:3.46169043;stroke-linecap:round;stroke-linejoin:miter;stroke-miterlimit:4;stroke-dasharray:none;stroke-dashoffset:0;stroke-opacity:1;paint-order:fill markers stroke" />
      <path
         inkscape:connector-curvature="0"
         id="path5460"
         d="m 132.75535,158.38962 c 0.34144,-0.83026 0.43961,-2.38026 0.19201,-3.03149 -0.10842,-0.28519 -0.0916,-0.34389 0.10023,-0.34935 0.12681,-0.004 1.04239,-0.0566 2.03462,-0.11765 1.60582,-0.0989 1.94122,-0.16418 3.05203,-0.59419 1.69234,-0.65512 3.31645,-1.51631 3.83214,-2.032 0.49028,-0.49027 1.16564,-2.02308 2.00181,-4.54332 0.78589,-2.36871 0.78425,-2.19405 0.0228,-2.41904 -0.35537,-0.10501 -0.70636,-0.17084 -0.77998,-0.1463 -0.0736,0.0246 -0.42131,0.91647 -0.77263,1.98205 -0.88574,2.68651 -1.47465,3.92231 -2.03335,4.26692 -0.62031,0.3826 -2.01958,1.04271 -3.05102,1.43931 -0.7488,0.28792 -1.19007,0.3484 -3.1987,0.43842 -2.32319,0.1041 -2.3313,0.10347 -2.74687,-0.2135 -1.06426,-0.81175 -2.57586,-1.13979 -3.77636,-0.81952 -0.38587,0.10294 -0.70159,0.15956 -0.70159,0.12581 0,-0.31732 0.51728,-1.88963 1.0034,-3.04993 0.33013,-0.78794 0.60011,-1.46884 0.59998,-1.51311 -1.3e-4,-0.0443 -0.27471,-0.25389 -0.61018,-0.46584 -0.54249,-0.34273 -0.64567,-0.36623 -0.93289,-0.21252 -0.26863,0.14377 -0.50873,0.13581 -1.42774,-0.0473 -1.80643,-0.35996 -2.06168,-0.46694 -3.09238,-1.2961 -1.31781,-1.06012 -4.75026,-4.38413 -5.2055,-5.04104 -0.46527,-0.67138 -0.82695,-2.47041 -1.04507,-5.19817 -0.2119,-2.65007 -0.0419,-4.55232 0.55959,-6.26109 1.25885,-3.57632 4.64975,-8.8006 6.73523,-10.37681 0.82257,-0.6217 2.1119,-1.04896 3.1654,-1.04896 0.7225,0 0.80245,0.0261 0.71612,0.23386 -0.26269,0.63217 -0.46596,1.46156 -0.46596,1.90128 0,0.61451 0.3459,1.80897 0.68422,2.36273 l 0.25782,0.42201 -0.57005,0.0963 c -0.83913,0.14178 -3.41654,0.9789 -4.13745,1.34382 -1.0191,0.51585 -2.3801,2.30712 -3.0787,4.05199 -0.27495,0.68675 -0.29914,0.9658 -0.30209,3.48602 -0.003,2.71045 5.3e-4,2.74731 0.35833,3.4745 0.3666,0.74528 1.86726,2.1981 3.68795,3.5704 1.38203,1.04166 1.77591,1.17647 3.36724,1.15251 0.77175,-0.0116 1.70031,-0.10485 2.06347,-0.20717 0.6368,-0.17943 0.68436,-0.17314 1.33635,0.17689 0.37182,0.19962 1.12706,0.50143 1.6783,0.6707 1.7988,0.55234 4.48424,0.36137 6.03364,-0.42908 0.68317,-0.34853 1.5725,-0.32722 3.39409,0.0813 3.06917,0.68836 4.32247,1.27097 4.9977,2.32323 1.32074,2.05818 2.31277,5.8205 2.08805,7.91893 -0.10991,1.02631 -0.52913,1.82601 -1.56507,2.98552 -1.65224,1.84931 -4.84856,4.4758 -6.19533,5.09085 -0.93866,0.42867 -2.48914,0.58652 -5.76128,0.58652 h -2.82832 z"
         style="opacity:1;fill:#ffffff;fill-opacity:1;fill-rule:evenodd;stroke:none;stroke-width:3.46169043;stroke-linecap:round;stroke-linejoin:miter;stroke-miterlimit:4;stroke-dasharray:none;stroke-dashoffset:0;stroke-opacity:1;paint-order:fill markers stroke" />
      <path
         inkscape:connector-curvature="0"
         id="path5462"
         d="m 127.32278,159.19143 c -0.47469,-0.24071 -0.86332,-0.56742 -1.12645,-0.94696 -0.35524,-0.5124 -0.40173,-0.69024 -0.40173,-1.5368 0,-1.21304 0.31376,-1.86406 1.18228,-2.45309 3.04802,-2.06718 6.27667,2.17585 3.50646,4.60812 -0.8824,0.77476 -2.04293,0.89546 -3.16056,0.32873 z"
         style="opacity:1;fill:#ffffff;fill-opacity:1;fill-rule:evenodd;stroke:none;stroke-width:3.46169043;stroke-linecap:round;stroke-linejoin:miter;stroke-miterlimit:4;stroke-dasharray:none;stroke-dashoffset:0;stroke-opacity:1;paint-order:fill markers stroke" />
      <path
         inkscape:connector-curvature="0"
         id="path5464"
         d="m 120.39637,193.29067 c -1.07263,-0.28845 -2.019,-0.84958 -2.25007,-1.33414 -0.17728,-0.37174 -0.17552,-0.46021 0.0165,-0.83145 0.41622,-0.80487 1.87219,-1.62106 3.51125,-1.96835 1.0898,-0.2309 3.49224,-0.25729 4.48152,-0.0492 1.50506,0.31656 2.64586,1.1091 2.64586,1.83814 0,0.74608 -1.62042,1.83212 -3.42052,2.2925 -1.26545,0.32365 -3.87403,0.35113 -4.98449,0.0525 z"
         style="opacity:1;fill:#ffffff;fill-opacity:1;fill-rule:evenodd;stroke:none;stroke-width:3.46169043;stroke-linecap:round;stroke-linejoin:miter;stroke-miterlimit:4;stroke-dasharray:none;stroke-dashoffset:0;stroke-opacity:1;paint-order:fill markers stroke" />
      <path
         inkscape:connector-curvature="0"
         id="path5466"
         d="m 142.71538,194.55084 c -0.66067,-0.19001 -1.03641,-0.47497 -1.22426,-0.92849 -0.26711,-0.64486 0.0271,-1.36584 0.92296,-2.26169 1.26976,-1.26975 3.43216,-2.12936 5.36344,-2.1321 2.75491,-0.004 3.52123,1.54926 1.66216,3.36885 -1.59227,1.55845 -4.82862,2.49862 -6.7243,1.95343 z"
         style="opacity:1;fill:#ffffff;fill-opacity:1;fill-rule:evenodd;stroke:none;stroke-width:3.46169043;stroke-linecap:round;stroke-linejoin:miter;stroke-miterlimit:4;stroke-dasharray:none;stroke-dashoffset:0;stroke-opacity:1;paint-order:fill markers stroke" />
      <path
         inkscape:connector-curvature="0"
         id="path5470"
         d="m 128.15101,188.04791 c -0.6939,-0.34456 -1.99443,-0.6791 -3.00797,-0.77375 l -1.78553,-0.16674 0.7023,-1.23077 c 3.44944,-6.0451 3.72153,-7.09286 4.10225,-15.79696 0.1511,-3.45445 0.275,-6.82717 0.27534,-7.49493 5.3e-4,-1.20748 0.007,-1.2158 1.16786,-1.52629 0.70386,-0.18825 2.05671,-0.25365 3.40769,-0.16474 2.96114,0.19489 7.64903,-0.22813 8.77985,-0.79225 0.49094,-0.24491 0.92408,-0.4453 0.96254,-0.4453 0.0385,0 0.12502,3.81862 0.19236,8.48581 0.15039,10.42243 0.13133,10.31904 3.19522,17.32594 l 0.9438,2.15839 -1.71957,0.39743 -1.71957,0.39743 -1.79626,-1.75401 c -1.51405,-1.47845 -2.11046,-2.3597 -3.79619,-5.60924 -2.51678,-4.85151 -3.2552,-5.90012 -4.1548,-5.90012 -0.88582,0 -1.51264,1.38415 -2.11812,4.67722 -0.67178,3.65363 -1.18837,5.73064 -1.82806,7.34991 l -0.5807,1.46998 z"
         style="opacity:1;fill:#ffffff;fill-opacity:1;fill-rule:evenodd;stroke:none;stroke-width:3.46169043;stroke-linecap:round;stroke-linejoin:miter;stroke-miterlimit:4;stroke-dasharray:none;stroke-dashoffset:0;stroke-opacity:1;paint-order:fill markers stroke" />
    </g>
  </g>
</svg>
